<?xml version="1.0" encoding="UTF-8"?>
<svg width="32.802mm" height="30mm" version="1.1" viewBox="0 0 116.22841 106.29921" xmlns="http://www.w3.org/2000/svg" xmlns:xlink="http://www.w3.org/1999/xlink">
 <defs>
  <linearGradient id="al">
   <stop stop-color="#dfdfdf" offset="0"/>
   <stop stop-color="#fff" offset=".53648"/>
   <stop stop-color="#fff" offset=".6409"/>
   <stop stop-color="#d7d7d7" offset=".79512"/>
   <stop stop-color="#898989" offset="1"/>
  </linearGradient>
  <linearGradient id="ao">
   <stop stop-color="#900" offset="0"/>
   <stop stop-color="#ff0101" offset=".32391"/>
   <stop stop-color="#f44" offset=".42257"/>
   <stop stop-color="#f00" offset=".75609"/>
   <stop stop-color="#c70000" offset="1"/>
  </linearGradient>
  <linearGradient id="an">
   <stop stop-color="#497888" offset="0"/>
   <stop stop-color="#497888" offset=".15108"/>
   <stop stop-color="#91bac8" offset=".22428"/>
   <stop stop-color="#497888" offset=".28284"/>
   <stop stop-color="#1b4d5f" offset=".40972"/>
   <stop stop-color="#497888" offset=".51952"/>
   <stop stop-color="#a6cbd7" offset=".5976"/>
   <stop stop-color="#497888" offset=".6708"/>
   <stop stop-color="#497888" offset=".81476"/>
   <stop stop-color="#1f4e5f" offset=".8416"/>
   <stop stop-color="#497888" offset=".90016"/>
   <stop stop-color="#497888" offset="1"/>
  </linearGradient>
  <linearGradient id="am">
   <stop stop-color="#96e4ff" offset="0"/>
   <stop stop-color="#b6e6f6" offset=".26086"/>
   <stop stop-color="#72dbff" offset="1"/>
  </linearGradient>
  <pattern id="bd" patternTransform="matrix(.3875 0 0 .5625 0 942)" xlink:href="#a"/>
  <pattern id="bc" patternTransform="matrix(.525 0 0 .475 -4 938)" xlink:href="#a"/>
  <pattern id="bb" xlink:href="#aj" patternTransform="matrix(.081189 0 0 .20376 -2 936)"/>
  <pattern id="ba" xlink:href="#aj" patternTransform="matrix(.056244 0 0 .27614 -2.8284 933.38)"/>
  <pattern id="az" xlink:href="#bi" patternTransform="matrix(.237 .3081 -1.3291 1.0224 -4.125 936.38)"/>
  <pattern id="ay" xlink:href="#aj" patternTransform="matrix(.030485 .0019632 -.010601 .16461 -2 938)"/>
  <pattern id="aj" width="30.066020" height="5.1805778" patternUnits="userSpaceOnUse">
   <path d="m7.597 0.061c-2.518-0.248-4.941 0.241-7.607 1.727v1.273c2.783-1.63 5.183-2.009 7.482-1.781 2.298 0.228 4.497 1.081 6.781 1.938 4.567 1.713 9.551 3.458 15.813-0.157l-4e-3 -1.273c-6.44 3.709-10.816 1.982-15.371 0.273-2.278-0.854-4.576-1.75-7.094-2z"/>
  </pattern>
  <pattern id="ax" patternTransform="matrix(.56012 0 0 .66619 -9.6569 943.04)" xlink:href="#a"/>
  <pattern id="aw" patternTransform="matrix(.22425 0 0 .24193 -4 938)" xlink:href="#a"/>
  <pattern id="bi" width="2" height="1" patternTransform="translate(0) scale(10)" patternUnits="userSpaceOnUse">
   <rect y="-.5" width="1" height="2"/>
  </pattern>
  <pattern id="av" patternTransform="matrix(.425 0 0 .525 -2 938)" xlink:href="#a"/>
  <pattern id="au" patternTransform="matrix(.36567 0 0 .33031 -5.6569 936.21)" xlink:href="#a"/>
  <pattern id="a" width="10" height="10" patternTransform="translate(0) scale(10)" patternUnits="userSpaceOnUse">
   <circle cx="2.567" cy=".81" r=".45"/>
   <circle cx="3.048" cy="2.33" r=".45"/>
   <circle cx="4.418" cy="2.415" r=".45"/>
   <circle cx="1.844" cy="3.029" r=".45"/>
   <circle cx="6.08" cy="1.363" r=".45"/>
   <circle cx="5.819" cy="4.413" r=".45"/>
   <circle cx="4.305" cy="4.048" r=".45"/>
   <circle cx="5.541" cy="3.045" r=".45"/>
   <circle cx="4.785" cy="5.527" r=".45"/>
   <circle cx="2.667" cy="5.184" r=".45"/>
   <circle cx="7.965" cy="1.448" r=".45"/>
   <circle cx="7.047" cy="5.049" r=".45"/>
   <circle cx="4.34" cy=".895" r=".45"/>
   <circle cx="7.125" cy=".34" r=".45"/>
   <circle cx="9.553" cy="1.049" r=".45"/>
   <circle cx="7.006" cy="2.689" r=".45"/>
   <circle cx="8.909" cy="2.689" r=".45"/>
   <circle cx="9.315" cy="4.407" r=".45"/>
   <circle cx="7.82" cy="3.87" r=".45"/>
   <circle cx="8.27" cy="5.948" r=".45"/>
   <circle cx="7.973" cy="7.428" r=".45"/>
   <circle cx="9.342" cy="8.072" r=".45"/>
   <circle cx="8.206" cy="9.315" r=".45"/>
   <circle cx="9.682" cy="9.475" r=".45"/>
   <circle cx="9.688" cy="6.186" r=".45"/>
   <circle cx="3.379" cy="6.296" r=".45"/>
   <circle cx="2.871" cy="8.204" r=".45"/>
   <circle cx="4.59" cy="8.719" r=".45"/>
   <circle cx="3.181" cy="9.671" r=".45"/>
   <circle cx="5.734" cy="7.315" r=".45"/>
   <circle cx="6.707" cy="6.513" r=".45"/>
   <circle cx="5.73" cy="9.67" r=".45"/>
   <circle cx="6.535" cy="8.373" r=".45"/>
   <circle cx="4.37" cy="7.154" r=".45"/>
   <circle cx=".622" cy="7.25" r=".45"/>
   <circle cx=".831" cy="5.679" r=".45"/>
   <circle cx="1.257" cy="8.519" r=".45"/>
   <circle cx="1.989" cy="6.877" r=".45"/>
   <circle cx=".374" cy="3.181" r=".45"/>
   <circle cx="1.166" cy="1.664" r=".45"/>
   <circle cx="1.151" cy=".093" r=".45"/>
   <circle cx="1.151" cy="10.093" r=".45"/>
   <circle cx="1.302" cy="4.451" r=".45"/>
   <circle cx="3.047" cy="3.763" r=".45"/>
  </pattern>
  <linearGradient id="bq" x1="110.65" x2="210.74" y1="980.21" y2="980.21" gradientTransform="translate(-106.11 22.173)" gradientUnits="userSpaceOnUse">
   <stop stop-color="#900" offset="0"/>
   <stop stop-color="#ff0101" offset=".32391"/>
   <stop stop-color="#f44" offset=".42257"/>
   <stop stop-color="#f00" offset=".96459"/>
   <stop stop-color="#c70000" offset="1"/>
  </linearGradient>
  <linearGradient id="ap" x1="6.7469" x2="9.3587" y1="991" y2="992.37" gradientUnits="userSpaceOnUse" xlink:href="#am" spreadMethod="repeat"/>
  <linearGradient id="aq" x1="138.33" x2="189.06" y1="974.59" y2="978.71" gradientTransform="translate(-94.393 -.87461)" gradientUnits="userSpaceOnUse" xlink:href="#an"/>
  <linearGradient id="ar" x1="131.83" x2="182.93" y1="982.71" y2="983.96" gradientTransform="translate(-88.08 5.058)" gradientUnits="userSpaceOnUse" xlink:href="#an"/>
  <linearGradient id="as" x1="141.42" x2="168.96" y1="990.84" y2="990.84" gradientTransform="translate(-133.29 -2.5054)" gradientUnits="userSpaceOnUse" xlink:href="#am"/>
  <linearGradient id="at" x1="149.12" x2="160.51" y1="976.46" y2="976.46" gradientTransform="translate(-117.91 -10.547)" gradientUnits="userSpaceOnUse" xlink:href="#ao"/>
  <linearGradient id="bj" x1="154.61" x2="169.03" y1="966.96" y2="966.96" gradientTransform="translate(-108.94 -11.89)" gradientUnits="userSpaceOnUse" xlink:href="#ao"/>
  <linearGradient id="bk" x1="44.163" x2="61.063" y1="959.48" y2="956.35" gradientUnits="userSpaceOnUse">
   <stop stop-color="#dfdfdf" offset="0"/>
   <stop stop-color="#fff" offset=".57186"/>
   <stop stop-color="#fff" offset=".71278"/>
   <stop stop-color="#d7d7d7" offset=".85592"/>
   <stop stop-color="#898989" offset="1"/>
  </linearGradient>
  <linearGradient id="bl" x1="29.542" x2="43.454" y1="968.13" y2="966.38" gradientUnits="userSpaceOnUse" xlink:href="#al"/>
  <linearGradient id="bm" x1="42.484" x2="98.673" y1="976.98" y2="976.98" gradientUnits="userSpaceOnUse" xlink:href="#al"/>
  <linearGradient id="bn" x1="49.148" x2="73.116" y1="998.12" y2="983.12" gradientUnits="userSpaceOnUse">
   <stop stop-color="#dfdfdf" offset="0"/>
   <stop stop-color="#fff" offset=".48973"/>
   <stop stop-color="#fff" offset=".60116"/>
   <stop stop-color="#d7d7d7" offset=".72031"/>
   <stop stop-color="#898989" offset="1"/>
  </linearGradient>
  <linearGradient id="bo" x1="3.1833" x2="107.29" y1="1009.3" y2="1018.1" gradientUnits="userSpaceOnUse">
   <stop stop-color="#dfdfdf" offset="0"/>
   <stop stop-color="#fff" offset=".47053"/>
   <stop stop-color="#fff" offset=".90529"/>
   <stop stop-color="#d7d7d7" offset=".92737"/>
   <stop stop-color="#898989" offset="1"/>
  </linearGradient>
  <linearGradient id="ak">
   <stop stop-color="#78c0ff" offset="0"/>
   <stop stop-color="#3a94e2" offset=".098714"/>
   <stop stop-color="#78d3ff" offset=".15935"/>
   <stop stop-color="#78c0ff" offset=".29881"/>
   <stop stop-color="#3b8bd2" offset=".40492"/>
   <stop stop-color="#59a7b8" offset=".53226"/>
   <stop stop-color="#78aeff" offset=".67475"/>
   <stop stop-color="#6ca1ce" offset=".82937"/>
   <stop stop-color="#78ecff" offset=".92639"/>
   <stop stop-color="#78c0ff" offset="1"/>
  </linearGradient>
  <radialGradient id="be" cx="165.98" cy="1150.2" r="57.906" gradientTransform="matrix(.54674 -.10345 .050338 .27565 -32.185 744.22)" gradientUnits="userSpaceOnUse" xlink:href="#ak" spreadMethod="reflect"/>
  <radialGradient id="bf" cx="305.23" cy="982.83" r="57.688" gradientTransform="matrix(1.0061 0 0 .17083 -1.8707 814.93)" gradientUnits="userSpaceOnUse" xlink:href="#ak"/>
  <radialGradient id="bg" cx="353.35" cy="996.51" r="8.5" gradientTransform="matrix(1.672 -.099838 .087585 1.3794 -324.49 -344.45)" gradientUnits="userSpaceOnUse" xlink:href="#ak"/>
  <linearGradient id="bp" x1="70.93" x2="81.703" y1="1014.3" y2="1016.8" gradientTransform="translate(8.1875,-2.75)" gradientUnits="userSpaceOnUse">
   <stop stop-color="#a6a6a6" offset="0"/>
   <stop stop-color="#c3c3c3" offset=".19554"/>
   <stop stop-color="#a6a6a6" offset=".36496"/>
   <stop stop-color="#767676" offset=".36522"/>
   <stop stop-color="#c5c5c5" offset=".43503"/>
   <stop stop-color="#919191" offset=".52392"/>
   <stop stop-color="#a6a6a6" offset=".56236"/>
   <stop stop-color="#c5c5c5" offset=".79243"/>
   <stop stop-color="#a6a6a6" offset="1"/>
  </linearGradient>
  <radialGradient id="bh" cx="114.5" cy="1011.3" r="2.6817" gradientTransform="matrix(1 0 0 1.0936 -25.835 -101.71)" gradientUnits="userSpaceOnUse">
   <stop offset="0"/>
   <stop stop-color="#5e5e5e" offset=".83902"/>
   <stop stop-color="#5e5e5e" offset="1"/>
  </radialGradient>
 </defs>
 <g transform="translate(4.3085 -936.16)">
  <path d="m43.145 973.15c-0.0925-0.2249-0.1231-2.0664 0-2.3928 0.0281-0.1652 0.36489-0.4062 0.78875-0.4776 3.8683-0.6522 8.8307-2.3665 10.891-2.7739 2.0605-0.4074 4.8053-1.485 8.9342-1.4531 5.6646 0.044 14.031-0.1859 17.296 0.3912 0.23802 0.3005 1.901 3.9737 1.7879 4.3407-0.6635 0.06-6.3962-0.288-12.589-3e-4 -2.7048 0.1256-5.5953 0.1439-8.2732 0.33-5.8462 0.4064-10.798 1.0186-11.429 1.1006-2.4666 0.3201-4.9306 0.7025-7.4063 0.9352z" fill="none" stroke="#f60" stroke-width=".35433"/>
  <g transform="translate(-251.38 37.123)" fill-rule="evenodd">
   <path d="m363.27 981.94c-2.314-0.065-3.9838-2.0415-4.9223-1.6313-1.5221 0.6653-2.783 1.3734-3.875 1.5063-3.934 0.4786-8.7741-4.6617-12.331-2.25-2.2652 1.5357-3.1896 2.2905-6.4141 2.25-4.6537-0.059-12.874-3.9845-15.528-3.5732-2.6637 0.4128-4.1643 1.7642-7.4139 1.5946-3.6309-0.1895-11.036-4.1034-12.525-3.1464-2.2358 1.4376-3.9392 2.9351-6.8677 2.9482-3.7376 0.017-10.021-4.7559-12.5-3.6982-2.6829 1.1445-1.9156 2.5095-4.8312 2.3598-2.7711-0.1423-8.7591-4.1935-10.89-3.1098-2.6251 1.3353-2.0019 2.3903-4.9049 1.875-3.9499-0.7011-7.5226-5.4907-8.8315-3.6982-0.59696 0.8174-4.2482 0.9482-4.2482 0.9482l0.12576 18.25 115.78 0.1124z" fill="url(#bf)"/>
   <path d="m345.91 998.93s3.097-4.3783 3.2225-7.3996c0.12369-2.9776 0.33142 0.97677-2.5624-2.9806-0.94719-1.2953 0.64545-3.5023 2.4751-4.3296 1.319-0.5965 2.444-0.0261 3.3097 0.56937 2.4538 1.6896 4.2011 4.7297 6.8317 4.1846 2.0108-0.41662 4.2537-1.2499 4.2537-1.2499l-0.0534 11.212h-17.477z" fill="url(#bg)"/>
   <path d="m251.87 972.44c-1.1259 1.0297-3.7599 1.1636-4.2651 2.2645 2.049 1.4174 4.988-1.7101 7.2246 1.4427 3.5652 3.032 7.9777 2.8241 11.624-0.4356 3.2702 2.4648 6.9368 3.6611 10.311 3.479 0.8456-0.046 1.6839-0.3222 2.5124-0.94 2.7434-3.7785 6.9155 1.0099 10.216 1.9835 2.2759 1.3533 5.0613 0.4588 7.2571-0.3167 1.4064-0.4967 2.716-1.3798 3.8258-2.5848 3.2836 2.8938 8.1664 3.2379 12.334 3.5175 1.2229 0.082 2.4604-0.062 3.7208-0.5644 1.2429-1.0686 3.2968-0.9535 4.682-0.9887 2.4259-0.062 3.9091 1.3959 6.3969 2.1087 3.1958 1.1931 8.1747 2.3662 11.537 1.6287 1.2925-0.2834 1.4684-1.6446 2.5965-2.6 1.2958-0.6797 2.5816-0.7275 3.8666-0.4714 3.5196 0.7014 6.6788 4.5664 10.369 3.0859 0.46693-0.9726 1.154-1.8263 1.9174-1.843 2.0437-0.045 4.6349 2.6391 5.0167 0.4197-2.7007-0.8736-5.0588-2.725-7.5028-0.2074-4.989 0.9038-9.8487-4.9706-14.583-1.5859-4.5724 3.544-10.276 0.4897-15.023-0.9531-4.0524-2.3752-7.974-0.3519-11.841 1.0057-4.7157 0.028-8.7469-3.1047-13.353-3.6062-3.2122 2.6326-7.0146 4.3592-10.975 1.7563-3.3786-1.1057-7.9136-4.4776-10.862-0.8589-3.7471 3.1871-8.2242-2.5693-12.395-2.4809-3.0354 1.4024-6.2225 3.4642-9.3946 0.5127-1.7307-0.9138-3.2693-2.324-5.2133-2.7679zm98.938 11.457c-2.2479-0.5296-4.7054 0.8912-4.8836 2.3496-0.10742 0.8792 0.61345 1.9407 2.7078 2.1192-0.2084 1.4236-4.7998 6.0249-1.3251 3.8554 2.2823-1.6704 3.624-5.4513-0.15214-5.3816-0.44231-2.4499 6.0101-1.668 7.3696 1.0349 1.7569 2.4733 7.8108 1.3135 8.3966-0.9387-3.0567 1.169-7.0502 0.7314-9.5446-2.2897-0.76013-0.4918-1.6529-0.7964-2.5686-0.7491z" color="#000000" color-rendering="auto" fill="#2e568e" image-rendering="auto" shape-rendering="auto" solid-color="#000000" style="block-progression:tb;isolation:auto;mix-blend-mode:normal;text-decoration-color:#000000;text-decoration-line:none;text-decoration-style:solid;text-indent:0;text-transform:none;white-space:normal"/>
  </g>
  <path d="m96.427 1027.5c-0.40032 0.9335-0.05281 2.0165-1.5026 2.7401l-44.106-3.2704c-11.833-0.9759-23.712-2.1016-36.239-5.3917l-7.4246-1.9445c-0.82481-1.0607-0.085342-2.7472 0.17678-4.2427l-2.2097-6.6291-0.088388-3.2704c-0.39881 0.025-0.70862 0.4065-1.3258-0.4419l0.26516-5.7453h-2.5633c-0.82956-0.4311-1.2618-1.1603-1.149-2.2981 0.22738-1.6704 0.79805-1.281 1.2374-1.6793l3.6239-0.1768 0.088388-1.3258 1.8562-0.8839h1.149l0.61872-6.0988 3.6239-0.26517 0.26516-6.1872 17.501-2.74 1.6794-10.253 0.26516-6.364 6.8943-2.1213c1.4059-0.23752 2.5063-0.10838 2.74 1.0607l2.2097 10.341 2.0329-10.872 0.44194-8.9272c1.9084-0.75655 3.7097-1.8347 5.8336-1.9446 3.0025-0.38168 4.3844 0.047 6.5407 0.0884l3.8007 17.589 18.296-0.0884c1.4307-0.13869 1.3477 0.73184 1.4142 1.5026l1.4142 3.2704 14.672 2.3865-0.17678 6.8059c-0.33855 0.32048-0.25735 0.74589-2.3865 0.61872l-0.53033 8.1317 5.1265-0.88388c1.27-0.0483 2.4988 0.15076 3.5355 1.5026l3.6239 3.7123c0.43708 0.6717 1.1599 1.3116-0.44195 2.2098-2.4775 2.5274-3.7987 5.286-5.1265 8.0433-2.9096 5.2413-2.5354 9.0752-3.8007 13.612z" fill="#f7f7f7" fill-rule="evenodd" stroke="#f60" stroke-width=".35433"/>
  <path d="m8.4477 1020.6c27.517 5.8146 55.712 7.7907 83.929 9.6429 2.2813 0.3726 3.3138-0.2538 3.2143-1.7858 1.3777-7.2024 2.8367-17.316 5.6277-24.436 1.2328-3.1446 3.1382-5.6283 4.8214-8.2143 2.2882-1.5691 0.46902-2.1113 0.17857-3.0357l-2.5-2.5c-1.426-1.7909-4.1384-2.0822-6.0714-1.7857l-25.714 5.3571c-9.3452 1.3095-20.485 3.9262-27.679 4.375l-2.2772-1.8767c-13.308 2.9961-26.609 2.8382-38.38 3.0599-0.055177 1.4817-0.1505 2.9615-0.23533 4.4418 0.12191 0.89 0.0435 1.9803 1.0714 1.9643-0.0302 3.3413 1.3304 7.4411 2.2277 9.6231 0.14965 0.8784-0.32414 2.6383 0.0018 3.3839 0.34907 0.9235 0.73597 1.7965 1.7857 1.7857z" fill="url(#bo)" fill-rule="evenodd" stroke="#f00" stroke-width=".35433"/>
  <g fill="url(#ap)" fill-rule="evenodd" stroke="#d40077" stroke-linecap="round" stroke-width=".17717">
   <path d="m7.5694 995.8 1.4688-0.096v1.4392h-1.4688z" color="#000000"/>
   <path d="m11.082 995.68 1.5966-0.096v1.4712l-1.5646 0.064z" color="#000000"/>
   <path d="m14.53 995.52 1.5008-0.096 0.0639 1.5352-1.4688 0.032z" color="#000000"/>
   <path d="m17.819 995.29 1.4688-0.063 0.0639 1.5992-1.5008 0.063z" color="#000000"/>
   <path d="m21.523 995.07 1.5966-0.16 0.0319 1.6632c-0.45682 0.035-1.0201 0.079-1.5646 0.096z" color="#000000"/>
   <path d="m25.164 994.72 1.5646-0.16 0.0639 1.7592-1.5008 0.1274z" color="#000000"/>
   <path d="m29.059 994.3 1.6924-0.192 0.0319 1.8231-1.6924 0.1599z" color="#000000"/>
   <path d="m33.21 993.82 1.7243-0.224-0.0319 1.7912-1.6604 0.1919z" color="#000000"/>
   <path d="m36.914 993.15 1.6924-0.1919 0.0319 1.7591-1.6285 0.2878z" color="#000000"/>
   <path d="m14.216 982.54 1.1944-0.1326 0.0442 1.4375-1.2607 0.088z" color="#000000"/>
   <path d="m17.034 982.18 1.3491-0.1989-0.0221 1.5701-1.327 0.1547z" color="#000000"/>
   <path d="m20.304 981.68 1.4154-0.2209 0.0442 1.6584-1.4154 0.221z" color="#000000"/>
   <path d="m23.972 981.1 1.4154-0.3093 0.0221 1.7026-1.4154 0.221z" color="#000000"/>
   <path d="m27.11 980.51 1.4596-0.2652v1.7027l-1.4154 0.2873z" color="#000000"/>
   <path d="m30.336 979.89 1.3491-0.243 0.0221 1.7026-1.3712 0.2652z" color="#000000"/>
   <path d="m33.032 979.38 1.6143-0.3535v1.8131l-1.548 0.2652z" color="#000000"/>
   <path d="m39.153 989.1 1.2165-0.2431 0.0221 1.2386-1.2386 0.221z" color="#000000"/>
   <path d="m37.914 985.76 1.2165-0.2431 0.0221 1.2386-1.2386 0.221z" color="#000000"/>
   <path d="m39.218 981.82 1.2165-0.2431 0.0221 1.2386-1.2386 0.221z" color="#000000"/>
   <path d="m38.577 977.93 1.2165-0.2431 0.0221 1.2386-1.2386 0.221z" color="#000000"/>
   <path d="m6.8355 1003.1h0.96852v1.0908h-0.96852z" color="#000000"/>
   <path d="m9.6584 1003.1h0.96852v1.0908h-0.96852z" color="#000000"/>
   <path d="m12.272 1003h1.1776v1.197h-1.1776z" color="#000000"/>
   <path d="m15.147 1003.1h1.2299v1.197h-1.2299z" color="#000000"/>
   <path d="m18.023 1003.1h1.2299v1.2501h-1.2299z" color="#000000"/>
   <path d="m20.898 1003h1.2299v1.2501h-1.2299z" color="#000000"/>
   <path d="m23.721 1002.9h1.1776v1.3033h-1.1776z" color="#000000"/>
   <path d="m26.596 1002.7h1.1776v1.197h-1.1776z" color="#000000"/>
   <path d="m29.523 1002.4h1.2299v1.25h-1.2299z" color="#000000"/>
   <path d="m32.503 1002.1h1.2299v1.2502h-1.2299z" color="#000000"/>
   <path d="m35.702 1001.8h1.2725v1.1908h-1.2725z" color="#000000"/>
   <path d="m39.142 1001.2h1.2822v1.3033h-1.2822z" color="#000000"/>
   <path d="m42.436 1000.7h1.3345v1.3032h-1.3345z" color="#000000"/>
  </g>
  <path d="m42.726 973.36s13.945-2.08 21.024-2.3359c6.5622-0.2372 13.147-0.702 19.698-0.2526 4.5015 0.3089 14.401 2.1971 14.401 2.1971 0.30287 0.1128 0.73397 0.09 0.63134 1.2627l-0.0631 4.7546c0.10273 1.5969-0.70746 1.3339-1.7046 1.2627l-0.88388 0.3788-0.12627 0.8839s-11.109-1.049-16.169-1.187c-3.4924-0.095-6.9904-0.036-10.48 0.1263-4.6822 0.2178-9.3503 0.6855-14.016 1.1364-4.1314 0.3993-12.374 1.764-12.374 1.764z" fill="url(#bm)" fill-rule="evenodd" stroke="#f0f" stroke-width=".35433"/>
  <g fill="url(#ay)" fill-rule="evenodd" opacity=".289" stroke="#d40077" stroke-linecap="round" stroke-width=".17717">
   <path d="m7.5694 995.8 1.4688-0.096v1.4392h-1.4688z" color="#000000" opacity="1"/>
   <path d="m11.082 995.68 1.5966-0.096v1.4712l-1.5646 0.064z" color="#000000" opacity="1"/>
   <path d="m14.53 995.52 1.5008-0.096 0.0639 1.5352-1.4688 0.032z" color="#000000" opacity="1"/>
   <path d="m17.819 995.29 1.4688-0.063 0.0639 1.5992-1.5008 0.063z" color="#000000" opacity="1"/>
   <path d="m21.523 995.07 1.5966-0.16 0.0319 1.6632c-0.45682 0.035-1.0201 0.079-1.5646 0.096z" color="#000000" opacity="1"/>
   <path d="m25.164 994.72 1.5646-0.16 0.0639 1.7592-1.5008 0.1274z" color="#000000" opacity="1"/>
   <path d="m29.059 994.3 1.6924-0.192 0.0319 1.8231-1.6924 0.1599z" color="#000000" opacity="1"/>
   <path d="m33.21 993.82 1.7243-0.224-0.0319 1.7912-1.6604 0.1919z" color="#000000" opacity="1"/>
   <path d="m36.914 993.15 1.6924-0.1919 0.0319 1.7591-1.6285 0.2878z" color="#000000" opacity="1"/>
   <path d="m14.216 982.54 1.1944-0.1326 0.0442 1.4375-1.2607 0.088z" color="#000000" opacity="1"/>
   <path d="m17.034 982.18 1.3491-0.1989-0.0221 1.5701-1.327 0.1547z" color="#000000" opacity="1"/>
   <path d="m20.304 981.68 1.4154-0.2209 0.0442 1.6584-1.4154 0.221z" color="#000000" opacity="1"/>
   <path d="m23.972 981.1 1.4154-0.3093 0.0221 1.7026-1.4154 0.221z" color="#000000" opacity="1"/>
   <path d="m27.11 980.51 1.4596-0.2652v1.7027l-1.4154 0.2873z" color="#000000" opacity="1"/>
   <path d="m30.336 979.89 1.3491-0.243 0.0221 1.7026-1.3712 0.2652z" color="#000000" opacity="1"/>
   <path d="m33.032 979.38 1.6143-0.3535v1.8131l-1.548 0.2652z" color="#000000" opacity="1"/>
   <path d="m39.153 989.1 1.2165-0.2431 0.0221 1.2386-1.2386 0.221z" color="#000000" opacity="1"/>
   <path d="m37.914 985.76 1.2165-0.2431 0.0221 1.2386-1.2386 0.221z" color="#000000" opacity="1"/>
   <path d="m39.218 981.82 1.2165-0.2431 0.0221 1.2386-1.2386 0.221z" color="#000000" opacity="1"/>
   <path d="m38.577 977.93 1.2165-0.2431 0.0221 1.2386-1.2386 0.221z" color="#000000" opacity="1"/>
   <path d="m6.8355 1003.1h0.96852v1.0908h-0.96852z" color="#000000" opacity="1"/>
   <path d="m9.6584 1003.1h0.96852v1.0908h-0.96852z" color="#000000" opacity="1"/>
   <path d="m12.272 1003h1.1776v1.197h-1.1776z" color="#000000" opacity="1"/>
   <path d="m15.147 1003.1h1.2299v1.197h-1.2299z" color="#000000" opacity="1"/>
   <path d="m18.023 1003.1h1.2299v1.2501h-1.2299z" color="#000000" opacity="1"/>
   <path d="m20.898 1003h1.2299v1.2501h-1.2299z" color="#000000" opacity="1"/>
   <path d="m23.721 1002.9h1.1776v1.3033h-1.1776z" color="#000000" opacity="1"/>
   <path d="m26.596 1002.7h1.1776v1.197h-1.1776z" color="#000000" opacity="1"/>
   <path d="m29.523 1002.4h1.2299v1.25h-1.2299z" color="#000000" opacity="1"/>
   <path d="m32.503 1002.1h1.2299v1.2502h-1.2299z" color="#000000" opacity="1"/>
   <path d="m35.702 1001.8h1.2725v1.1908h-1.2725z" color="#000000" opacity="1"/>
   <path d="m39.142 1001.2h1.2822v1.3033h-1.2822z" color="#000000" opacity="1"/>
   <path d="m42.436 1000.7h1.3345v1.3032h-1.3345z" color="#000000" opacity="1"/>
  </g>
  <path d="m43.986 979.87s16.408-2.5296 25.5-2.6702c3.6188-0.056 8.7161-0.2026 13.439 0.077 6.3289 0.3755 11.936 1.2182 11.936 1.2182v-2.5s-6.2103-1.255-12.807-1.7544c-4.4694-0.3384-8.9812-0.1793-12.38-0.1612-9.1327 0.048-25.688 2.2281-25.688 2.2281z" fill="url(#aq)" fill-rule="evenodd" stroke="#0ff" stroke-width=".35433"/>
  <path d="m81.95 1003.8c-9.2321 1.2675-18.408 2.9846-27.679 3.9286-8.1284 0.8277-16.294 1.4489-24.464 1.5178-8.5798 0.072-25.006-1.2062-25.006-1.2062l-0.26651-2.2768s10.799 0.9315 16.433 0.8938c9.9956-0.067 19.992-0.9025 29.911-2.1429 10.381-1.2982 20.614-3.5871 30.893-5.5357 3.1311-0.5936 9.375-1.875 9.375-1.875l8.2143-1.4286c1.725-0.3262 2.8051-0.1401 3.704 0.3598l1.5594 1.8399c-0.83333 1.2778-2.1086 2.6899-2.9419 4.2965-0.46776-0.5545-0.6487-0.935-2.2321-0.6926 0 0-4.1198 0.5369-11.023 1.4511-3.8602 0.5144-5.2899 0.7073-6.4773 0.8703z" fill="url(#bq)" fill-rule="evenodd"/>
  <path d="m81.95 1003.8c-9.2321 1.2675-18.408 2.9846-27.679 3.9286-8.1284 0.8277-16.294 1.4489-24.464 1.5178-8.5798 0.072-25.006-1.2062-25.006-1.2062l-0.26651-2.2768s10.799 0.9315 16.433 0.8938c9.9956-0.067 19.992-0.9025 29.911-2.1429 10.381-1.2982 20.614-3.5871 30.893-5.5357 3.1311-0.5936 9.375-1.875 9.375-1.875l8.2143-1.4286c1.725-0.3262 2.8051-0.1401 3.704 0.3598l1.5594 1.8399c-0.83333 1.2778-2.1086 2.6899-2.9419 4.2965-0.46776-0.5545-0.6487-0.935-2.2321-0.6926 0 0-4.1198 0.5369-11.023 1.4511-3.8602 0.5144-5.2899 0.7073-6.4773 0.8703z" fill="url(#av)" fill-rule="evenodd" opacity=".211"/>
  <path d="m6.8782 1016.5s13.184 2.3923 18.956 3.1215c9.311 1.1764 18.662 2.1352 28.036 2.5893 9.4992 0.4601 18.636 0.764 28.571 0.5354 3.7789-0.087 11.163-1.5077 11.163-1.5077 1.268-0.3255 2.9768-1.2736 3.8303-2.1357l-1.7921 9.2192c0.12879 1.505-1.2334 1.9961-2.574 1.8967 0 0-27.185-1.5294-40.714-2.978-10.312-1.1041-20.564-2.228-30.803-3.8788-4.2995-0.6933-14.625-3.3164-14.625-3.3164-0.43475-1.9368-0.30988-2.6238-0.04689-3.5455z" fill="#ba0000" fill-rule="evenodd" stroke="#00f" stroke-width=".35433"/>
  <path d="m6.8782 1016.5s13.184 2.3923 18.956 3.1215c9.311 1.1764 18.662 2.1352 28.036 2.5893 9.4992 0.4601 18.636 0.764 28.571 0.5354 3.7789-0.087 11.163-1.5077 11.163-1.5077 1.268-0.3255 2.9768-1.2736 3.8303-2.1357l-1.7921 9.2192c0.12877 1.505-1.2334 1.9961-2.574 1.8967 0 0-27.185-1.5294-40.714-2.978-10.312-1.1041-20.564-2.228-30.803-3.8788-4.2995-0.6933-14.625-3.3164-14.625-3.3164-0.43475-1.9368-0.30989-2.6238-0.046886-3.5455z" fill="url(#au)" fill-rule="evenodd" opacity=".342" stroke="#00f" stroke-width=".35433"/>
  <path d="m89.049 1001.5c-1.2082 0.015-2.3895 1.4217-2.5 2.625-0.10461 1.1393 0.73829 2.7449 1.875 2.875 1.4346 0.1642 3.1103-1.5561 3.125-3 0.012-1.1784-1.3216-2.5144-2.5-2.5z" fill="url(#bh)" fill-rule="evenodd" stroke="#55d400" stroke-width=".35433"/>
  <path d="m89.049 1001.5c-1.2082 0.015-2.3895 1.4217-2.5 2.625-0.10461 1.1393 0.73829 2.7449 1.875 2.875 1.4346 0.1642 3.1103-1.5561 3.125-3 0.012-1.1784-1.3216-2.5144-2.5-2.5z" fill="url(#aw)" fill-rule="evenodd" opacity=".56" stroke="#55d400" stroke-width=".35433"/>
  <path d="m8.3156 989.5c8.5-0.8245 18.679-1.5574 27.179-3.8324l-0.0625 2.1468c-6.855 1.3076-13.223 2.3298-19.215 2.8511-2.6855 0.23362-5.331 0.40194-7.85 0.38922z" fill="url(#as)" fill-rule="evenodd" stroke="#0ff" stroke-width=".35433"/>
  <path d="m8.3156 989.5c8.5-0.8245 18.679-1.5574 27.179-3.8324l-0.0625 2.1468c-6.855 1.3076-13.223 2.3298-19.215 2.8511-2.6855 0.23362-5.331 0.40194-7.85 0.38922z" fill="url(#az)" fill-rule="evenodd" opacity=".226" stroke="#0ff" stroke-width=".35433"/>
  <path d="m95.04 989.27 0.26785-7.3026-13.393-1.0714-8.125-0.1786-11.429 0.625c-6.692 0.5404-13.384 1.3495-20.076 2.4732l-0.0848 12.722 2.2768 1.9821c6.5371-0.4323 13.486-1.9889 20.946-3.2768 6.4334-1.1106 12.933-2.3506 19.259-3.741z" fill="url(#bn)" fill-rule="evenodd" stroke="#aad400" stroke-width=".35433"/>
  <path d="m42.058 996.11c-2.0362 1.2104-16.183 2.9362-19.987 3.0625-4.1332 0.1372-12.157 0.3025-16.968 0.2957-2.4857 0-4.3982-0.1627-4.3844-0.2179-1.3467-1.0361-0.24647-2.9757 0.17857-3.5688l3.75-0.2679c-0.29795-1.5354 0.46335-1.884 1.2536-1.9652 0 0 11.777-0.7572 17.451-1.3401 3.4298-0.3523 10.224-1.4268 10.224-1.4268 2.338-0.2873 1.8374-1.2005 2.0536-1.9643l1.4286-14.554c0.21643-1.3637 0.92969-1.4853 1.6072-1.6964l3.5976-0.588z" fill="none" stroke="#00f" stroke-width=".35433"/>
  <path d="m36.278 983.06s-9.755 1.9588-14.708 2.6162c-4.2434 0.5632-13.014 1.4876-13.014 1.4876l-0.54927 6.0507s8.4025-0.5811 11.995-0.8795c4.8938-0.4065 13.448-1.5177 13.448-1.5177 1.634-0.01 1.8821-0.8808 2.2097-1.7047z" fill="none" stroke="#f0f" stroke-width=".35433"/>
  <path d="m43.986 979.87s16.408-2.5296 25.5-2.6702c3.6188-0.056 8.7161-0.2026 13.439 0.077 6.3289 0.3755 11.936 1.2182 11.936 1.2182v-2.5s-6.2103-1.255-12.807-1.7544c-4.4694-0.3384-8.9812-0.1793-12.38-0.1612-9.1327 0.048-25.688 2.2281-25.688 2.2281z" fill="url(#ba)" fill-rule="evenodd" opacity=".244" stroke="#0ff" stroke-width=".35433"/>
  <path d="m43.799 993.53s16.471-2.7866 25.563-2.9797c3.6188-0.077 10.341-0.1532 15.064 0.2308 4.7664-0.8593 10.25-2.1288 10.25-2.1288v-3.4512s-6.1491-0.1718-12.746-0.4827c-4.4886-0.2115-8.9812-0.2462-12.38-0.2214-9.1327 0.066-25.75 2.3726-25.75 2.3726z" fill="url(#ar)" fill-rule="evenodd" stroke="#0ff" stroke-width=".35433"/>
  <path d="m43.799 993.53s16.471-2.7866 25.563-2.9797c3.6188-0.077 10.341-0.1532 15.064 0.2308 4.7664-0.8593 10.25-2.1288 10.25-2.1288v-3.4512s-6.1491-0.1718-12.746-0.4827c-4.4886-0.2115-8.9812-0.2462-12.38-0.2214-9.1327 0.066-25.75 2.3726-25.75 2.3726z" fill="url(#bb)" fill-rule="evenodd" opacity=".223" stroke="#0ff" stroke-width=".35433"/>
  <path d="m29.781 977.39c1.1295-4.6068 1.6012-10.198 1.9196-15.628 0.0325-0.3274-0.0145-0.6547 0.35714-0.9821 0 0 2.7241-1.3592 4.2411-1.7411 1.3136-0.3307 4.0234-0.2568 4.1071-0.089 0.45496 0.2306 0.89487 0.5138 1.1161 1.5625l1.8508 10.597-4.8467 0.695c-0.70018 0.3214-1.2753 0.4989-1.5498 1.7903l-0.3063 2.3779z" fill="url(#bl)" fill-rule="evenodd" stroke="#aad400" stroke-width=".35433"/>
  <path d="m31.736 965.66s3.5309-1.55 5.3571-1.875c0.80579-0.1433 1.8214-0.467 2.8142-0.4423 0.99274 0.025 2.0073 0.7102 2.0073 0.7102l0.44643 2.1875s-0.71697-0.3108-2.2345-0.3467c-0.7229-0.017-2.1939 0.3102-2.7208 0.3914-2.1163 0.326-5.9821 2.0982-5.9821 2.0982z" fill="url(#at)" fill-rule="evenodd" stroke="#f0f" stroke-width=".35433"/>
  <path d="m31.736 965.66s3.5309-1.55 5.3571-1.875c0.80579-0.1433 1.8214-0.467 2.8142-0.4423 0.99274 0.025 2.0073 0.7102 2.0073 0.7102l0.44643 2.1875s-0.71697-0.3108-2.2345-0.3467c-0.7229-0.017-2.1939 0.3102-2.7208 0.3914-2.1163 0.326-5.9821 2.0982-5.9821 2.0982z" fill="url(#bc)" fill-rule="evenodd" opacity=".199" stroke="#f0f" stroke-width=".35433"/>
  <path d="m44.38 970.47s1.1073-7.0498 1.4101-10.602c0.23395-2.745 0.3125-8.2589 0.3125-8.2589-0.031-0.5335 0.15111-0.9391 0.71428-1.1161 3.627-1.7068 6.7398-1.5281 10.045-2.0535 1.551-0.1204 1.9732 1.0934 2.2321 2.5 0.47789 2.1636 0.84917 4.4694 1.251 6.7344 0.53501 3.0156 1.1242 5.9588 2.0914 8.3982-3.0208 0.2696-4.0512 0.7442-5.6272 1.1358-4.375 1.0874-8.2859 2.1748-12.429 3.2622z" fill="url(#bk)" fill-rule="evenodd" stroke="#aad400" stroke-width=".35433"/>
  <path d="m45.945 954.73s3.6148-1.4554 5.441-1.7803c0.8058-0.1434 3.3861-0.6841 4.3767-0.7549 1.5285-0.1092 3.4805 0 3.4805 0l0.58035 3.5714c-0.37761-0.37-2.4901-0.7298-4.3075-0.5961-0.72115 0.053-3.2906 0.515-3.8622 0.6854-2.0519 0.612-5.8036 2.0536-5.8036 2.0536z" fill="url(#bj)" fill-rule="evenodd" stroke="#f0f" stroke-width=".35433"/>
  <path d="m45.945 954.73s3.6148-1.4554 5.441-1.7803c0.8058-0.1434 3.3861-0.6841 4.3767-0.7549 1.5285-0.1092 3.4805 0 3.4805 0l0.58035 3.5714c-0.37761-0.37-2.4901-0.7298-4.3075-0.5961-0.72115 0.053-3.2906 0.515-3.8622 0.6854-2.0519 0.612-5.8036 2.0536-5.8036 2.0536z" fill="url(#bd)" fill-rule="evenodd" opacity=".214" stroke="#f0f" stroke-width=".35433"/>
  <path d="m36.57 976.57s-8.1209 1.7048-12.093 2.4089c-3.9829 0.7059-11.949 1.8653-11.949 1.8653l-0.15149 5.8184s6.347-0.67406 9.3695-1.0521c4.8416-0.6055 14.356-2.5024 14.356-2.5024z" fill="none" stroke="#c83737" stroke-width=".35433"/>
  <path d="m101.87 988.65c0.41564 7.6533-1.6052 14.01-2.8726 20.882 2.3692-5.242 4.6713-10.765 8.6179-15.556z" opacity="0" stroke-width=".35433"/>
  <path d="m45.157 950.42c-0.25315 0.42976-0.30266 0.89035-0.29198 1.0536 0.02381 0.36365-0.07248 5.7018-0.29791 8.3468-0.18129 2.1271-0.59817 5.105-0.94727 7.4805l-1.2559-7.0762c-0.09734-0.54846-0.58123-1.1655-1.0626-1.4554-0.4814-0.28984-0.64322-0.36774-1.0648-0.41984-0.4216-0.0521-0.9211-0.1297-1.3686-0.1287-0.89503 2e-3 -1.8874 0.18041-2.6992 0.38477-1.756 0.44207-4.4032 1.7932-4.6695 2.0065-0.24953 0.19987-0.4498 0.57564-0.52196 0.88026-0.07215 0.30461-0.06303 0.51434-0.2218 3.1907-0.15877 2.6764-0.61693 8.0196-1.6396 12.432-1.692 0.33607-3.3467 0.65893-4.5879 0.87891-3.94 0.69833-11.916 1.8613-11.916 1.8613-0.42374 0.13607-0.93987 0.16656-0.80469 0.9414l-0.17578 5.4395c-1.3549 0.12486-3.1094 0.28711-3.1094 0.28711-0.63195 0.10015-0.7084 0.43837-0.76953 0.78315l-0.4707 4.7285c-0.09883 6e-3 -1.1101 0.0735-1.1101 0.0735-0.45922 0.25416-0.62557 0.63236-0.99023 0.86196-0.15546 0.098-0.34697 0.1688-0.61258 0.1915l-0.72032 0.096-0.066789 1.1264-3.0002 0.1215c-0.57677 0.047-1.531 1.5008-1.5465 2.4064-0.012655 0.7408 0.14458 1.6123 0.43161 1.9929s0.4428 0.6862 1.0277 0.8947c0.58493 0.20846 0.90873 0.23346 1.3119 0.25746 0.25179 0.015 0.57965 0.028 0.88672 0.041l-0.17768 3.8986c-0.010514 0.2307 0.021854 0.7504 0.21088 1.3319 0.2201 0.6706 0.49249 0.635 1.0005 0.8557 0.095545 3.0516 0.8676 5.3837 1.6323 7.3924 0.093818 0.2464 0.53354 1.3464 0.58452 2.4643 0.026014 0.5705-0.30562 1.2292-0.33843 1.7251-0.041052 0.6206-0.14346 1.1729 0.030982 1.6069 0.18772 0.467 0.48144 0.8805 0.98074 1.1353 0.55594 0.2837 1.0801 0.8751 15.169 3.7769 14.089 2.9019 42.325 4.878 57.012 5.8995 9.4491 0.6571 13.238 0.8868 14.959 0.8418 0.95426-0.025 1.2731-0.1344 1.5686-0.3022 0.36404-0.2068 0.64023-0.5152 0.90401-1.2162 0.2925-0.7774 0.56976-2.0375 0.93464-4.1773 0.69394-4.0693 2.166-14.15 4.8898-21.098 1.1756-2.9988 2.8882-5.5159 4.7324-8.041 0.3431-0.4698 0.87503-0.6846 1.0859-1.0957 0.25641-0.4998 0.22526-1.1275 0.041-1.5293-0.18423-0.4017-0.42792-0.644-0.66611-1.0115-0.16584-0.1938-2.8905-3.0217-2.8905-3.0217-1.7471-2.1103-4.7162-2.3597-6.832-2.0352v0.01h-0.02344l-1.7754 0.36914 0.21875-5.9258 0.07617-0.53711 0.29102-0.125c0.38692 0.054 0.78685 0.18087 1.3789-0.0547 0.35548-0.14144 0.7052-0.49141 0.85547-0.8789 0.15024-0.38741 0.15483-0.78522 0.15681-0.98856l0.04831-4.9568c0.0065-0.66321-0.02171-1.2026-0.37695-1.6172-0.36758-0.42895-0.82576-0.48667-0.90018-0.50703-0.33218-0.0909-10.831-1.6983-13.498-2.1341-0.41299-0.74516-0.60009-1.2359-0.82044-1.7476s-0.54068-0.97862-0.7976-1.682c-0.21494-0.58851-0.73534-1.0651-1.138-1.0484-1.8114-0.0959-4.426-0.32549-7.6465-0.34571-3.2204-0.0202-6.7299 0.0257-9.5469 4e-3 -0.37909-3e-3 -0.73395 0.0115-1.0918 0.0254-0.83783-2.2438-1.4024-4.9773-1.9082-7.8281-0.39766-2.2413-0.76869-4.5454-1.0803-6.0204-0.31165-1.475-0.58606-2.1952-0.98416-2.968-0.39928-0.77517-1.2481-0.91506-2.2891-0.93287-2.2557-0.0386-6.734 0.16314-8.8736 1.1133s-2.5906 1.2693-2.843 1.6978zm6.0977 2.0542c-1.3686 0.25319-3.1178 0.88287-4.2988 1.3359-0.01631-0.93916-0.0089-1.6704-0.07751-2.5781 1.7318-0.87555 3.7984-1.3346 5.758-1.5389 3.3936-0.35391 4.4538-0.0104 4.798 0.0839 0.33 0.6941 0.38188 1.4719 0.48441 1.8785-0.64746 0.0316-1.4671-0.0211-2.6318 0.0978-1.1647 0.11891-2.4567 0.42946-4.0323 0.72093zm4.1855 2.0548c-0.85404 0.0629-3.2389 0.64132-3.9766 0.86132-1.624 0.48434-3.6115 1.2389-4.6074 1.6192 0.02816-0.68774 0.05324-1.3807 0.07227-2.0332 0.85929-0.33569 3.1323-1.1963 4.5137-1.4551 1.4974-0.28052 2.772-0.51353 4.3203-0.74804 0.85844-0.13002 1.6693 0.066 2.4311 0.13685 0.16991 0.35567 0.3742 1.845 0.3742 1.845s-2.169-0.29657-3.1276-0.22597zm3.2051 1.2812c0.11074 0.6352 0.37728 1.4552 0.49023 2.0918 0.4562 2.5713 1.0047 5.0658 1.7676 7.3516-2.0329 0.28762-3.298 0.66269-4.5137 0.96484-3.8509 0.95711-7.3236 1.9112-10.91 2.8633 0.24547-1.5883 0.94228-5.9756 1.207-9.082 0.04477-0.52525 0.07941-1.1933 0.11328-1.8477 0.98677-0.37326 2.8402-1.194 4.4688-1.6797 0.4055-0.12093 3.7217-0.85044 4.3105-0.88477 1.1937-0.0696 2.0058-2e-5 3.0664 0.22266zm-18.116 4.4544 0.56156 2.8503c-0.36004-0.13411-0.76239-0.2506-1.209-0.26171-1.1172-0.0278-2.1741 0.3165-2.9199 0.44921-1.4912 0.26535-3.3903 1.0374-4.4688 1.4941 0.06149-0.84139 0.06012-2.147 0.20037-2.786 0.31703-0.46221 2.6809-1.3795 3.909-1.6887 0.50181-0.12632 1.4942-0.30399 2.0984-0.36089 0.93978-0.0885 1.4368 0.14432 1.8282 0.30355zm-0.67286 3.6511c0.6302 0.0156 1.1164 0.25076 1.3398 0.38476l0.33203 1.3184c-0.30589-0.0961-0.53215-0.19362-1.4277-0.21484-0.45012-0.0107-1.0005 0.0743-1.5352 0.16601-0.53466 0.0917-1.0485 0.19492-1.2793 0.23047-1.1532 0.17767-2.6508 0.71356-3.8965 1.2031-0.62779 0.24673-0.83272 0.34429-1.1211 0.47265 0.04572-0.49293 0.1023-0.97907 0.14258-1.4746 0.59478-0.25449 3.2566-1.3887 4.7383-1.6523 0.86578-0.15406 1.8387-0.45515 2.707-0.43359zm1.8535 2.7363 0.7168 4.1094s-0.89705 0.14636-1.3457 0.21875c-0.95755 0.15449-2.4687 0.27599-2.8732 0.46007-0.15249 0.0694-0.55407 0.0525-1.1873 0.6063-0.63323 0.55376-0.6908 1.1612-0.76144 1.4927l-0.29915 2.1167-5.0059 1.0312c0.5369-2.5141 0.91236-5.2307 1.1992-8.0098 0.32706-0.14614 0.7149-0.32786 1.625-0.68554 1.2163-0.47803 2.7069-0.99228 3.6699-1.1406 0.29616-0.0456 0.78356-0.14441 1.2969-0.23242 0.51331-0.088 1.0573-0.1588 1.6112-0.14567 0.55386 0.0131 1.0382 0.0998 1.3537 0.17887zm31.288 3.2751c-3.1342 0.0865-6.4238 0.26294-9.6947 0.38119-5.1934 0.18774-9.1023 0.71821-13.547 1.332-0.23725 0.0328-6.1447 0.92625-6.2275 0.91935-2.07e-4 -0.0105-0.04456-0.53134-0.04456-0.53134 0.13438-0.2421 1.1786-0.42174 3.0452-0.97765 2.1096-0.60009 5.9196-1.8431 10.278-2.9262 1.6535-0.41097 1.8748-0.53227 4.8184-0.97656 0.59589-0.0899 1.9426-0.14394 2.6191-0.1387 2.8477 0.0221 6.3224-0.11753 9.4359-0.0978 3.1135 0.0197 6.2472-0.0902 7.1809 0.35756 0.52825 0.88607 1.2201 2.1903 1.2497 2.8015-1.5642 0.0487-5.9789-0.22983-9.1131-0.14332zm24.355 9.5559c-0.17096 0.0809-0.51972 0.084-0.86293 0.0592l-1.8823 0.6334-0.07227 0.50977-6.3389-0.50781c-0.04852-4e-3 -4.8011-0.47152-6.2744-0.50194-1.454-0.03-2.9943-0.16699-4.3536-0.18609-1.4735-0.0207-2.5773-0.0405-3.8319 6e-3 -1.6871 0.063-3.5663 0.17561-5.1387 0.23629-1.6041 0.0619-3.2019 0.18649-4.7988 0.3086-1.5982 0.12221-1.0242 0.07-2.4921 0.17436-1.4679 0.10435-3.8794 0.3484-5.5252 0.52238s-2.1472 0.24309-2.594 0.29543c-0.48316 0.0566-0.96625 0.11051-3.0366 0.38186-2.0703 0.27135-5.3352 0.75069-7.0083 1.0302l-0.05664-8.3633c-0.0015-0.22312 1.2329-0.1899 2.043-0.30469 2.0169-0.23051 3.8617-0.48131 5.8418-0.73828 0.60366-0.0784 5.7139-0.69117 11.533-1.0957 2.6379-0.18337 5.4282-0.26387 8.1582-0.39063 1.5336-0.0712 3.0419-0.0312 4.4511-0.0489 1.1089-0.0139 2.7255 0.0178 4.1093 0.0897 1.3934 0.0724 2.1855 0.0467 5.4134 0.3847 2.85 0.29843 11.973 1.7783 12.712 2.0176 0.01955 0.73932 5e-3 5.4878 5e-3 5.4878zm-55.927-5.9598c0.02546 3.4225-0.06642 10.268-0.06642 10.268l-0.0073 11.818c-1.8642 0.6477-3.9641 0.9584-5.7463 1.2546-1.5832 0.2631-3.2644 0.4591-4.7405 0.6445-3.9837 0.5003-7.8415 0.8283-11.84 0.959-4.321 0.1412-9.9885 0.2632-13.836 0.259-1.2235 0-2.684 0-3.618-0.021-0.691-0.1354-0.95318-0.9591-0.89347-1.5172 0.040914-0.3824 0.32792-0.776 0.86891-0.8678l3.918-0.1699 0.078125-1.6473c0.03737-0.4344 0.24499-0.5813 0.67472-0.6413 0 0 1.5196-0.067 1.9366-0.094 0.80961-0.052 1.5177-0.1128 2.4277-0.1719 3.596-0.2333 8.9343-0.5846 12.902-0.9922 3.4604-0.3555 10.275-1.2513 10.285-1.252 0.47536-0.0303 0.89383-0.13654 1.4318-0.36985 0.53795-0.23331 0.87551-0.54567 1.0624-0.89187 0.20289-0.3759 0.25872-0.68459 0.30736-0.89185 0.0041-0.0174 0.35663-3.7994 0.54519-5.6981 0.27142-2.7331 0.62092-5.4589 0.84375-8.1964 0.03634-0.44647 0.08039-1.3414 0.08039-1.3414 0.02082-0.13148-0.01914-0.37479 0.18449-0.57847s0.4598-0.2191 0.74391-0.26278l2.4405-0.37521s0.01467 0.51818 0.0166 0.77735zm25.25 0.14085c-0.53401 0.0124-1.6296 0.096-2.7855 0.16361l-2.6507 0.15512c-1.1277 0.066-3.3998 0.27671-4.5014 0.38934l-5.4793 0.56022c-0.83592 0.0855-2.3263 0.28898-3.5774 0.43047l-1.9642 0.22212c-0.79998 0.0905-2.0709 0.27105-2.0709 0.27105l0.0752 4.6319s3.8289-0.54916 6.0569-0.83928l5.2839-0.68807c1.5065-0.19617 3.0429-0.36554 4.6152-0.50586 1.0408-0.0929 1.6279-0.1372 3.5649-0.32197 3.0806-0.29386 3.7532-0.31777 6.2124-0.35582 1.3694-0.0212 2.9175-0.11198 4.6035-0.0976l2.242 0.019c0.46867 4e-3 2.2759 0.0213 3.2405 0.0122 1.7695-0.0166 2.9494 0.0755 4.5565 0.21122 3.7597 0.31753 7.5224 0.68168 11.256 1.236l0.05227-3.5073s-1.3119-0.28775-1.8774-0.40388c0 0-2.6211-0.46051-3.9385-0.6454-1.5331-0.21515-3.2812-0.4376-4.6105-0.5754-1.0538-0.10924-1.982-0.18599-2.9247-0.26837-0.99938-0.0873-1.9997-0.11949-3.002-0.1543-1.0671-0.0371-2.1125-0.0795-4.1016-0.0593s-3.0652-8.6e-4 -3.317 5e-3zm8.088 2.9803c-0.20909 2e-3 -1.4126 4e-3 -1.4126 4e-3l0.06055-2.0117 1.3915-3e-3c0.03611 0.37465-0.03943 2.0111-0.03943 2.0111zm2.1577-2.0216-0.01953 2.0117c-0.34796-9.8e-4 -0.70619-9e-3 -1.0488-8e-3l0.01069-1.9728c0.16855 5.8e-4 0.71524-0.0346 1.0577-0.0309zm-4.6367 2.0529c-0.47762 8e-3 -0.99064 0.0116-1.4375 0.0195l0.01953-2.0508c0.46483-5e-3 1.2385-0.0383 1.4855-0.0416zm-2.5 0.0156-1.5137 0.0352v-2.0312c0.44929-0.0108 1.2555-0.0589 1.549-0.061 0.02685 0.39749-0.03536 2.0571-0.03536 2.0571zm9.625-0.0332c-0.48676-6e-3 -0.93852-0.0174-1.4453-0.0295l0.01953-1.9745c0.47447-5e-3 0.93254-0.076 1.4347 0.0423 0.0334 0.46203 0.0296 1.2562-0.0089 1.9617zm-12.201 0.14643c-0.44946 0.0207-0.85705 0.0246-1.3242 0.0527l0.04102-2.0918c0.45244-0.0218 1.1133-3e-3 1.3308-0.011zm14.562-1.9981v1.9414c-0.43235-0.0195-0.86448-0.0352-1.2988-0.0488l-0.04811-2.0102c0.21361 0.0112 0.91954 0.0867 1.3469 0.11764zm-16.91 0.0488-0.04102 2.0488-1.3926 0.10742 0.03221-2.1064c0.14101-9e-3 1.4014-0.0498 1.4014-0.0498zm17.973 0.0566 1.1738 0.0996 0.03906 1.8398-1.2129-0.0996zm-20.469 0.0703v2.1406c-0.48569 0.0418-0.96548 0.0886-1.4551 0.13476l0.02148-2.1621c0.48126-0.0378 0.95645-0.0792 1.4336-0.11328zm23.605 2.041c-0.27727-0.0231-0.57151-0.0425-0.85742-0.0645l8e-3 -1.8565c0.15753 0.0171 0.78322 0.0947 0.93627 0.11267zm-26.125 0.33984c-0.44881 0.048-0.83157 0.0758-1.293 0.1152v-2.1602l1.3145-0.11912zm27.225-2.0177c0.38001 0.0484 0.70273 0.0971 1.0625 0.14649l0.03906 1.7012-1.1406-0.0957zm-29.58 0.041v2.2168c-0.65391 0.0718-1.2814 0.14623-1.918 0.2207l0.04297-2.2559c0.62249-0.0613 1.2363-0.12269 1.875-0.18164zm32.449 2.0156c-0.21637-0.0242-0.58268-0.0699-0.81166-0.0944l0.04181-1.6493c0.12311 0.0181 0.70139 0.0852 0.81765 0.10296zm-35.391-1.7305-0.04297 2.2754c-0.51972 0.0627-0.91219 0.11523-1.4102 0.17773l0.04297-2.3027c0.49858-0.0528 0.89005-0.0975 1.4102-0.1504zm36.49 0.2461c0.3179 0.0517 0.59406 0.0972 0.87109 0.14453l0.01758 1.5449-0.92578-0.11523zm-38.967 0.0234-0.04297 2.3242c-0.73154 0.0945-1.3797 0.17922-2.0332 0.26758l0.04297-2.3652c0.65607-0.0751 1.299-0.14646 2.0332-0.22656zm40.904 0.29882c0.69947 0.12585 1.1594 0.21732 1.3145 0.24805v1.4648c-0.09506-0.014-0.94531-0.12036-1.2969-0.16992zm-44.004 0.0625-0.04297 2.3223-1.4121 0.19531 0.04297-2.375zm-2.4785 0.27344-0.04297 2.4414c-0.80058 0.11723-1.8104 0.26418-1.9727 0.28906v-2.4785c0.12976-0.0169 1.1619-0.14595 2.0156-0.25195zm-6.5039 0.88086-1.5664 0.38574v1.501l1.5957-0.28516zm-0.3457 0.42969 0.01563 0.87695-0.88281 0.15625v-0.85937zm-4.2656 4.668c-0.94071 0.1734-8.5482 1.7614-13.049 2.3242-2.5684 0.32118-8.2657 1.2839-9.457 1.2129l0.16215-4.8984c1.0419-0.1522 7.9832-1.0079 11.707-1.668 3.543-0.62797 10.376-1.8406 11.145-2.0014zm-2.5059-3.334c0.02727 0.69138 0.0535 1.3828 0.08012 2.0742l1.8945-0.32422-2.1e-5 -2.1836zm1.6191 8e-3v1.4434l-1.2012 0.20508-0.05273-1.373zm-2.6094 0.18554-1.6992 0.30664v2.0879l1.7266-0.33398zm-0.34961 0.42383 0.01953 1.3457-1.0156 0.19532v-1.3613zm-2.7637 0.17383-1.8164 0.33008c0.0178 0.6953 0.03519 1.3906 0.05273 2.0859l1.7637-0.35742zm-0.35352 0.42187v1.3477l-1.0664 0.2168-0.03516-1.3633zm-4.5996 0.50977c0.0091 0.6543 0.01825 1.3086 0.02739 1.9629l1.7695-0.27734-0.02737-2.0723zm1.4199 0.0527 0.01758 1.3301-1.0605 0.16602-0.01758-1.2656zm-3.3223 0.23633-1.7676 0.27539c0.01744 0.6719 0.03633 1.3438 0.05468 2.0156l1.7676-0.27539zm72.436 1.256-0.07031 2.1885c-0.07253-2e-3 -0.86523-0.047-2.0781-0.0459-2.101 2e-3 -5.1396-0.17776-8.6992-0.33364s-4.9331-0.29589-7.9458-0.33479-3.9437 0.019-4.2698 0.0273c-1.4101 0.036-3.2526 0.0398-4.5884 0.0951-1.2042 0.0498-2.196 0.12227-3.4636 0.21746-1.8953 0.14232-3.8353 0.2751-4.7948 0.37537l-4.258 0.44498c-1.8461 0.19293-3.2465 0.38054-4.7461 0.55273 0 0-2.0594 0.28284-3.0121 0.39507-0.95628 0.11266-2.1148 0.24373-3.0699 0.37648v7.7519c3.8286-0.4156 7.4999-1.2193 11.278-1.7702 4.9228-0.71775 9.9384-1.1742 14.828-1.3079 2.6265-0.0718 6.893-0.10737 10.826 0.0137l-6.0352 1.2577c-1.2106 0.2523-2.4242 0.4954-3.6465 0.6836-8.9616 1.3799-19.157 3.9184-25.855 4.3828l-1.7285-1.2501 0.10742-11.929c0.84975-0.16691 2.8374-0.46669 5.752-0.88477 2.2393-0.32122 4.4782-0.60824 6.7207-0.83984 2.7663-0.2857 5.5282-0.59329 8.293-0.74414l6.6582-0.36328c3.009-0.16417 5.96-0.11562 6.5191-0.10365 2.1728 0.0465 1.714 0.0367 3.2528 0.0696s5.3853 0.33741 8.5209 0.59545 4.8907 0.42264 5.5061 0.47988zm-53.719-1.143-1.5664 0.38672v1.5l1.5957-0.28515zm-19.059 0.29883 0.0332 1.3008-1.0625 0.16602-0.03516-1.3008zm-2.9863 0.11914-1.7051 0.25v1.8789l1.6777-0.19531zm21.699 0.0137 0.01563 0.875-0.88281 0.15821v-0.86133zm-22.059 0.39844-0.01758 1.2051-0.97461 0.11328v-1.1719zm-4.1621 0.18552c-0.0081 0.58074-0.01809 1.1615-0.02739 1.7422l1.623-0.11329-0.05467-1.7988zm1.1992 0.22265c0.01096 0.35939 0.02211 0.71878 0.0332 1.0782l-0.89844 0.0625 0.01758-1.0469c0.28253-0.0312 0.56528-0.0625 0.84766-0.0938zm20.02 1.3106-0.12695 1.2441c-4.1785 1.1139-8.6755 2.0215-13.184 2.5647-4.4221 0.53287-8.8861 0.98928-13.039 1.324l0.10547-1.3125c0.88599-0.078 8.3888-0.85721 12.437-1.3945 4.6101-0.61183 12.482-2.1988 13.807-2.4258zm34.721 6.1407-2.4082 0.0684 0.14648-4.9746c0.63673-0.0212 1.9691-0.0563 2.4006-0.0575zm3.1016-0.0271c-0.75348 6e-3 -1.3813 0.0149-2.0391 0.0254l0.23857-4.9601c0.32451-1e-3 1.4711 5e-3 1.8233 7e-3zm2.6016-4.9064-0.11914 4.8828-1.4199-0.0156-0.06055-4.8809zm3.3262 0.0742-0.04102 4.875c-0.78354-0.017-1.5658-0.0407-2.3418-0.0469l0.12013-4.8125c0.37403 8e-3 1.4948-0.0397 2.2627-0.0156zm-12.355-0.0137-0.14648 5.0352c-0.73682 0.0456-1.4912 0.10371-2.2656 0.16796l0.01563-5.0684c0.82024-0.0527 1.621-0.1 2.3965-0.13476zm15.513 0.12105-0.0068 4.791-2.1289-0.041 0.04297-4.7852zm-42.862-4e-3 -1.5684 0.38671v1.5l1.5957-0.28516zm43.783 0.0547c0.74186 0.0334 1.291 0.0528 1.9922 0.082l0.03516 4.707-0.76758 0.16015c-0.34767-0.0272-0.75366-0.0379-1.1191-0.0605zm-19.91 5.1094c-0.73369 0.071-1.5521 0.14938-2.2285 0.21489l0.14648-5.1152 2.0996-0.17386zm24.4-4.8555 0.05859 4.0098-1.459 0.30468-0.0332-4.3633zm2.5117 0.0332 0.10547 3.4395-0.8457 0.18164-0.65234 0.13476-0.05778-3.7772c0.21566 8e-3 1.06 8e-3 1.4504 0.0213zm-30.061-2e-3 -0.14844 5.1699c-0.84409 0.0934-1.6769 0.18328-2.5098 0.28516l0.07031-5.2227c0.85994-0.0841 1.7177-0.15626 2.5879-0.23242zm32.41 0.0801-0.03906 2.8848-1.1465 0.24805-0.09766-3.1582zm-53.482 0.01 0.01563 0.87696-0.88086 0.15625v-0.85938zm55.25 0.0449-0.08984 2.4609-0.65039 0.14063 0.09492-2.6235c0.05976 2e-3 0.60319 0.0207 0.64531 0.0219zm-37.9 5.4258-2.2305 0.30078-0.11328-5.2656c0.78341-0.0933 1.5697-0.15942 2.3556-0.22576zm-21.279-4.9414-0.12109 1.3906c-4.2712 0.90162-8.6486 1.5624-12.939 2.0932-4.2723 0.52859-9.3018 0.96027-13.21 0.9693l0.068359-0.86133c4.3742-0.41774 9.6231-0.86346 14.215-1.4261 3.9598-0.48524 8.1689-1.1897 11.986-2.1657zm17.873 0.0977 0.11524 5.3125c-0.96453 0.13397-1.7156 0.24719-2.5684 0.37304l-0.11328-5.3828c0.84747-0.10154 1.6048-0.19452 2.5664-0.30273zm-3.6289 0.42773 0.11328 5.3946-2.0527 0.3105-0.06055-5.4668c0.54676-0.0696 1.3329-0.15659 2-0.23828zm-3.0625 0.37695 0.0625 5.5078c-0.73488 0.1188-1.7231 0.2785-1.8789 0.3047v-5.5742c0.11624-0.016 1.1044-0.14456 1.8164-0.23829zm-11.394 1.3073c0.0031 0.36861-0.14039 1.3853-0.31509 1.5006s-0.58651 0.25044-3.0844 0.61253-6.6096 1.0782-11.457 1.4686c-3.6141 0.29108-7.7822 0.47378-11.35 0.70118l0.15234-1.3828c7.9747 0.0144 17.421-1.2931 21.715-2.0281s3.6661-0.67549 4.3387-0.8719zm5.728 0.17705-1.5664 0.38671v1.5l1.5957-0.28516zm-0.3457 0.42969 0.01562 0.87695-0.88281 0.15625v-0.85937zm66.038 4.642c0.34799 0.5198-6e-3 0.9329-0.55346 1.4972-0.54748 0.5643-0.91478 1.1046-1.2819 1.6483l-1.1793-1.2006c-0.40888-0.4163-1.6716-0.8039-2.5928-0.631 0 0-6.1038 1.0322-9.1458 1.6027-3.1309 0.5871-6.2505 1.2815-9.3711 1.8731-10.29 1.9507-20.514 4.2353-30.861 5.5293-4.1767 0.5223-8.366 1.1052-12.562 1.4563-5.7541 0.4815-11.521 0.6438-17.286 0.6823-5.1556 0.034-14.444-0.7478-15.893-0.9043-0.51695-0.056-0.93828-0.067-1.1825-0.1325-0.037109-0.099-0.19543-1.2452-0.15491-1.7177 0.071707-0.8361-0.087213-1.6232 0.41422-2.7074h1.1662l0.24479-0.6226c1.2921-0.05 5.2285 0.037 6.9288 0 3.0813-0.067 6.202-0.12006 9.2357-0.21916 1.9993-0.065 6.461-0.5311 10.75-1.1328 2.1445-0.3008 4.2362-0.6372 5.9355-0.9766 1.1909-0.2378 2.3469-0.5008 2.7321-0.6372 0.0091 0 1.3218 1.1166 2.8158 1.8969 3.994-0.063 13.682-1.9431 21.116-3.2263 1.7795-0.3072 3.5636-0.6339 5.1622-0.8968 0.4583-0.075 0.91642-0.1802 4.2265-0.818 3.3253-0.6407 6.6385-1.3151 9.9062-2.0332 3.2924-0.7235 2.7644-0.60202 4.1484-0.89453 3.0764-0.65018 9.237-1.9127 9.237-1.9127-1.5763 0.32641 0.77679-0.23878 1.7464-0.20428 0.96965 0.0345 2.4401 0.65751 2.6565 0.9294zm-69.523-0.7445 0.10937 2.2626 1.9766-0.3476-0.03906-2.1055zm1.6992 0.204 0.02539 1.4141-1.2812 0.2266-0.07813-1.4903zm-5.4326 0.4659 0.03616 2.1572 2.0098-0.2305 0.03708-2.1523zm1.7217 0.1787-0.02539 1.4316-1.3125 0.1524-0.02539-1.4063zm-5.8418 0.3437c0.01057 0.7143 0.02449 1.4285 0.03716 2.1426l2.0469-0.1934-0.03909-2.1816zm1.6992 0.1641 0.02344 1.4648-1.3379 0.127-0.02539-1.4395zm-3.6816 0.055-1.9238 0.1953c0.05353 0.6926 0.10319 1.3854 0.1543 2.0781l1.8477-0.1562zm-5.5586 0.5469c0.02863 0.6471 0.05248 1.2943 0.07811 1.9414 0.64083-0.026 1.2786-0.096 1.9162-0.16l-0.03927-1.9772zm5.2695 1.244-1.1543 0.098-0.10156-1.375 1.2051-0.1232zm-7.1504-1.1074-1.8203 0.078c0.01409 0.6511 0.02621 1.3021 0.03906 1.9531l1.8594-0.078zm3.5137 1.3597c-0.37283 0.029-0.79173 0.057-1.2148 0.074l-0.05078-1.252 1.2402-0.1228zm-8.6289-1.0546c0.03529 0.6063 0.07754 1.2122 0.11722 1.8183l1.8203-0.039-0.0801-1.8985zm-3.4414 0.1601c0.01346 0.5964 0.02611 1.1927 0.03906 1.7891l1.9141-0.078 2e-6 -1.8283zm8.2656 1.148-1.1426 0.018-0.02344-1.2148c0.38914-0.016 0.97173-0.033 1.1382-0.04zm-9.9512-1.1407-1.8242 0.1192v1.6875h1.8242zm6.6934 1.2638-1.1172 0.025-0.07226-1.125 1.1426-0.074zm-3.4082 0.1-1.2148 0.049-0.02344-1.0859 1.2383-0.076zm-3.6406 0.088h-1.1133v-1l1.1133-0.072zm94.186-0.2129 0.75196 1.0274c-0.70832 1.063-1.5437 2.3119-2.1664 3.4507-0.24765 0-0.48036-0.4517-0.75863-0.5634-0.45016-0.1807-0.90847-0.054-1.6107 0.152-0.0131 0-8.06 1.2891-8.06 1.2891-0.66782-0.5601-1.1681-1.1659-2.2012-1.1016-0.80669 0.05-1.5181 0.4598-2.0488 1.0411-0.19227 0.2106-0.35385 0.4452-0.49805 0.6894-1.5139 0.2026-2.9361 0.3965-4.1172 0.5586-9.2491 1.2698-18.419 2.9848-27.66 3.9258-8.1194 0.8268-16.27 1.4474-24.416 1.5156-4.0741 0.034-9.9351-0.1144-14.925-0.4176-4.8345-0.2937-8.8503-0.7407-9.7153-0.809-0.041124-0.3805-0.066467-0.7816-0.078125-1.2011 1.5153 0.1352 10.64 0.9374 15.889 0.9023 5.9051-0.04 11.852-0.2365 17.737-0.7366 4.1038-0.3487 8.1546-0.9015 12.235-1.4118 10.414-1.3024 20.659-3.5927 30.926-5.5391 3.1364-0.5946 9.3469-1.8698 9.3648-1.8729l8.4169-1.4683c0.19611-0.034 0.53155-0.069 1.1316-0.069 0.60001-2e-4 1.3769 0.055 1.8035 0.6384zm-60.793 3.7949v1.6563h1.6895v-1.6563zm0.35352 0.3536h0.98047v0.9493h-0.98047zm-3.6465 0.1231v1.6582h1.6367v-1.6582zm0.35352 0.3555h0.92773v0.9492h-0.92773zm-3.7927 0.2811v1.5525h1.6247v-1.5525zm0.31291 0.3112h1.0006v0.9301h-1.0006zm-3.5124-0.044v1.6035h1.584v-1.6035zm60.945 18.706c-0.04448 0.011-7.3983 1.4102-11.049 1.4942-9.9176 0.2283-19.039-0.075-28.533-0.5352-9.355-0.4532-18.693-1.3959-27.994-2.5859-5.8602-0.7498-11.737-1.8399-17.538-2.8077-0.32987-0.045-0.78563-0.124-0.70822-0.7663-0.031504-0.8698-0.28241-1.5098-0.45914-2.2569-0.37515-1.586-0.96309-3.0635-1.2751-4.72 1.3771 0.1075 5.3119 0.5693 9.8897 0.8751 4.9444 0.3302 10.639 0.5004 14.671 0.4665 8.1941-0.069 16.376-0.6909 24.514-1.5195 9.3002-0.947 18.482-2.6665 27.697-3.9317 1.0157-0.1394 3.0159-0.3514 3.5543-0.4393-0.08032 0.6855 0.09333 1.6939 0.48863 2.3456 0.39531 0.6517 0.99786 1.2211 1.7969 1.3125 0.94888 0.1086 1.8883-0.3382 2.5273-1.0469 0.50372-0.5586 1.18-1.5512 1.1895-2.4766 0.0034-0.3307-0.0784-0.6463-0.20117-0.9472 4.2135-0.5562 6.3521-1.033 7.0853-1.1648 0.48932-0.088 0.98683-0.279 1.547-0.1127 0.57816 0.1715 0.43723 0.4399 0.68846 0.7104-0.3305 0.4603-0.34897 0.5358-1.3254 3.0265-0.97641 2.4906-2.3909 10.607-3.2899 13.596-1.4294 1.2872-2.2084 1.2097-3.2757 1.4838zm-4.2539-18.564c0.38309-0.047 0.91308 0.2449 1.3145 0.6465s0.65239 0.9297 0.64844 1.3164c-0.0053 0.5186-0.24092 1.3059-0.76061 1.8169s-1.0217 0.848-1.5074 0.7922c-0.33771-0.039-0.61509-0.4707-0.89928-0.9392-0.28414-0.4684-0.30223-1.141-0.2639-1.5585 0.0412-0.4487 0.20107-0.9101 0.59069-1.3368s0.67644-0.7129 0.87764-0.7375zm-59.672 0.1758v1.6054h1.584v-1.6054zm3.334 0.035h0.875v0.8965h-0.875zm-6.2617 0.2832v1.5527h1.5312v-1.5527zm3.2812 0.037h0.87695v0.8946h-0.87695zm-6.1562 0.1231v1.6582h1.5312v-1.6582zm-2.8223 0.1054v1.6055h1.584v-1.6055zm-14.062 0.055v1.4434h1.3223v-1.4434zm5.4355 0v1.5508h1.5332v-1.5508zm5.752 0v1.6035h1.584v-1.6035zm8.9277 0.035h0.82226v0.8418h-0.82226zm-17.293 0.018v1.4453h1.3223v-1.4453zm5.4883 0v1.5507h1.5859v-1.5507zm8.9277 0.1406h0.82422v0.9492h-0.82422zm-2.8223 0.1074h0.875v0.8945h-0.875zm-14.062 0.053h0.61523v0.7364h-0.61523zm5.4375 0h0.82227v0.8418h-0.82227zm5.75 0h0.875v0.8965h-0.875zm-8.3652 0.053h0.61523v0.7363h-0.61523zm5.4902 0h0.875v0.8437h-0.875zm10.236 16.773c9.3177 1.19 18.685 2.1387 28.078 2.5938 9.5044 0.4604 18.655 0.7646 28.609 0.5351 3.8961-0.09 10.506-1.3303 11.385-1.5485 0.48826-0.1213 1.9408-0.4848 2.754-1.3577-0.37417 2.0293-0.73103 3.9337-1.0645 5.7636l-0.39896 2.4364c0.02292 0.2704-0.30851 0.8745-0.79417 0.7561-0.25374 0.1257-3.6115 0.036-15.045-0.8324-14.644-1.1127-42.819-2.8876-56.779-5.7649-3.8645-0.7965-6.738-1.4061-8.8348-1.8427-4.5149-0.9402-5.4874-1.2919-5.5886-1.416-0.42779-0.5946-0.34427-0.6709-0.44431-1.352-0.027507-0.1873-0.095003-0.6208 0.039094-0.9314 5.8269 1.0259 12.132 2.2005 18.084 2.9606z" color="#000000" color-rendering="auto" fill="#464646" fill-rule="evenodd" image-rendering="auto" shape-rendering="auto" solid-color="#000000" style="block-progression:tb;isolation:auto;mix-blend-mode:normal;text-decoration-color:#000000;text-decoration-line:none;text-decoration-style:solid;text-indent:0;text-transform:none;white-space:normal"/>
  <g transform="translate(-.70711)" fill-rule="evenodd">
   <path d="m-3.5538 1017c0.00802 8.4884 0.10236 20.966 0.051156 25.351 38.705 0.083 77.41 0.1879 116.11 0.3012l-0.0627-5.743s-8.2191-10.706-13.038-8.1679c-1.1552-1.6296-3.1797-4.0603-5.3934-4.7221-1.8877-0.5643-5.5154 0.2988-5.6422 2.2972-0.08004 1.2623 1.8261-0.904 3.7614-0.2552 1.8143 0.6083 0.73331 3.2735-1.0031 4.0839-2.3846 1.1131-13.674-8.431-14.419-5.8706-0.81825 2.8122 0.35222 4.4418-3.3853 4.0839-3.5081-0.3358-10.327-7.7253-11.034-4.2116-0.36453 1.8121-2.0504 3.2299-3.0351 3.3044-1.3841 0.3843-12.376-6.6605-12.387-4.453-0.01003 1.9628-1.9815 2.1648-3.7595 2.0121-1.61-0.5424-3.1463-1.0234-4.4471-1.2982-2.6271-1.51-6.8489-4.0792-7.5915-1.8625-0.86527 2.5832-5.1385 1.0014-8.4006 0.6381-3.5606-0.3965-9.5145-5.6462-10.281-4.4668-1.6203 2.4922-5.4276 2.3869-7.2721 0.7658-1.9017-1.6714-4.8546-1.9533-6.4125-1.9333-1.5578 0.019-2.3642 0.1465-2.3642 0.1465z" fill="url(#be)"/>
   <path d="m-1.2413 1016.3-2.431 0.8074 0.19459 1.0767s1.7319-0.9615 3.4844-0.8548 3.8384 0.5481 5.2168 1.7383c1.0442 0.9016 2.7392 1.874 4.2412 1.7861 1.4734-0.086 2.7723-1.2608 3.3545-1.9114 0.58216-0.6506 0.86189-0.5626 1.1992-0.4099 0.67459 0.3054 1.5971 0.8482 2.6094 1.4434 0.61851 0.3636 1.2708 0.7411 1.0952 0.8656-0.17556 0.1244-0.89221 0.4182-1.2944 0.9309-0.40222 0.5128-0.51468 1.1324-0.60937 1.6953-0.0947 0.563-0.17427 1.0867-0.31446 1.373s-0.20212 0.3791-0.67382 0.3496c-2.4017-0.1504-4.579-1.5285-6.5137-2.9648-1.9347-1.4364-3.5461-2.9631-5.209-3.1582-0.67022-0.079-1.3684 0.1572-2.0977 0.4922-0.72927 0.3351-1.483 0.7926-2.1699 1.2539-1.3739 0.9227-2.4883 1.8711-2.4883 1.8711l0.64648 0.7617s1.0819-0.9172 2.4004-1.8027c0.65927-0.4427 1.3756-0.8763 2.0273-1.1758 0.65169-0.2994 1.2445-0.4438 1.5644-0.4062 1.0599 0.1244 2.7542 1.501 4.7285 2.9668 1.9743 1.4657 4.3094 2.9886 7.0488 3.1601 0.77177 0.048 1.7738-0.2471 2.0325-0.7756 0.25873-0.5284 0.26859-1.1583 0.35815-1.6907 0.0896-0.5325 0.0784-0.9926 0.27562-1.2441 0.19723-0.2514 0.71074-0.1846 1.4234-0.1071 1.3513 0.147 3.1234 1.2007 5.3596 2.5831 2.2362 1.3823 4.4513 3.0631 6.3164 3.1266 1.1823 0.04 2.7574 0.054 3.3907-0.4153 0.63331-0.4698 1.2435-1.2099 1.6018-1.7458s-0.0676-1.2626 0.3737-1.5601c0.44128-0.2975 0.84176-0.6536 1.8486-0.5479 1.8051 0.1895 4.5976 1.1317 7.3887 2.0742s5.5796 1.8878 7.623 2.0527c1.9452 0.1571 5.1735 0.6369 7.1371 0.1307s2.7412-2.0705 3.1422-4.0291c0.0688-0.3359 0.16186-0.4263 0.26563-0.4785 0.10377-0.052 0.31501-0.074 0.64648 0.01 0.66293 0.1673 1.68 0.7365 2.7812 1.4395 1.1012 0.7031 2.1732 1.8878 3.3362 2.5723 1.163 0.6844 2.4038 1.2813 3.4334 1.3781 0.96434 0.091 2.5752 0.1996 3.1195 0.017s0.8341-0.8956 1.0112-1.3445c0.35425-0.8978-1.0081-2.7569-0.36775-3.4318s1.2894 0.074 1.6901 0.3166c1.144 0.4844 2.5142 1.643 4.1142 2.5855s3.2571 2.245 4.6894 2.9441c0.71618 0.3496 1.5074 0.4941 2.0955 0.6545s1.8725-0.1662 2.3607-0.3877c1.0186-0.467 1.5672-1.312 1.8747-2.2906 0.15378-0.4893-0.29344-1.3157-0.47054-1.7937-0.17704-0.4779-0.5948-0.7002-1.1641-0.8877-1.1681-0.3847-2.261 0.062-2.9785 0.3633-0.14034 0.059-0.15692 0.058-0.26758 0.1 0.0775-0.2129 0.12681-0.4286 0.3418-0.6211 0.31623-0.2832 0.78253-0.5315 1.3125-0.709 1.0599-0.355 2.3782-0.4122 3.1699-0.1797 1.7952 0.5273 3.638 2.4924 4.8008 4.0235-0.11537 0.099-0.4809 0.1164-0.55814 0.2338-0.16869 0.2564-0.22278 0.7117-0.24023 0.9425-0.0349 0.4616 0.72841 1.0563 0.50203 1.5796-0.63368 1.4649-2.4004 2.6245-3.8248 2.873-1.7168 0.2996-4.6021-0.6754-7.0469-1.6367-1.2224-0.4806-2.0751-1.1224-2.9516-1.3975-0.43825-0.1376-1.1638-0.5427-1.5118-0.5535-0.174-0.01-0.92442 0.054-1.3729 0.3089-0.18331 0.081 0.12097 0.5311 0.0525 0.7398-0.63003 1.9214-1.9982 3.2322-5.1186 2.6641-1.1545-0.2102-3.3279-1.0108-5.4805-1.8242s-4.023-1.9043-5.3657-2.1891c-0.94136-0.1997-2.4811-1.0934-2.9041-0.6589-0.42302 0.4342 0.0882 2.2663 8e-3 2.7269-0.0801 0.4606-0.16768 0.8464-0.34375 1.0683-0.17607 0.2218-0.44828 0.3977-1.2344 0.3692-1.5676-0.057-4.9182-1.3471-7.9062-2.461-1.494-0.557-2.9136-1.0665-4.0645-1.3476-0.57542-0.1405-1.0829-0.226-1.5293-0.2207-0.44635 0.01-1.3867-0.075-1.6619 0.3115 0.33034 1.987-1.0852 2.7658-1.6662 3.2666-0.27246 0.2556-0.55324 0.4169-1.0195 0.5332-0.4663 0.1163-1.1165 0.1733-2.043 0.168-2.3754-0.014-5.9746-1.4041-9.0723-2.6133-1.5488-0.6046-2.9761-1.1591-4.1289-1.4648-0.57641-0.1529-1.0824-0.2473-1.5352-0.2383-0.45277 0.01-0.92363 0.1428-1.1855 0.541-0.50705 0.771-0.90852 1.2639-1.248 1.5527-0.33954 0.2889-0.5955 0.3883-0.93945 0.4238-0.68788 0.071-1.7947-0.2589-3.7188-0.4492-1.8067-0.1788-5.6866-0.4348-9.1589-1.2772-1.7362-0.4212-3.2794-0.9896-4.5171-1.2393-0.61883-0.1249-2.1541-1.274-2.5555-1.3146-0.2007-0.02-0.36958-0.031-0.53125-0.02-0.38265-0.032-0.37027-0.024-0.58203 0.2832-0.29153 2.7211-1.9212 3.0313-3.1806 3.1436-1.2261 0.139-2.8587-0.4832-2.8587-0.4832l0.0638 1.1624s1.4551 0.4796 2.9082 0.3149c3.5713 0.1058 4.791-2.8845 4.791-2.8845s1.0544 0.701 1.6575 0.8227c1.2061 0.2433 2.7014 0.6762 4.4358 1.097 3.4687 0.8415 7.4216 1.1906 9.4282 1.3891 1.8382 0.1818 2.8802 0.5566 3.9199 0.4492 0.51983-0.054 1.0217-0.2628 1.4844-0.6563 0.46268-0.3936 1.1426-0.5347 1.751-0.9792 0.60845-0.4445 1.0051-0.4135 1.5344-0.2737 1.0586 0.2807 2.167 0.87 3.7141 1.4739 3.0941 1.2078 6.7768 2.2243 9.5181 2.2398 0.96761 0.01 1.691-0.048 2.291-0.1973 0.59998-0.1496 1.0775-0.4119 1.4629-0.7734 0.77085-0.7231 1.2033-1.0651 2.2812-2.5774-5e-3 0.01 0.0761-0.065 0.375-0.068 0.29891 0 0.74586 0.064 1.2773 0.1933 1.063 0.2596 2.5115 0.6702 3.9973 1.2241 2.9716 1.1078 6.1619 1.8761 8.1746 1.949 0.97525 0.035 1.6659-0.2562 2.0547-0.7461 0.38884-0.4899 0.46704-1.0602 0.54687-1.5195 0.0798-0.4593 0.041-1.0125 0.1643-1.139 0.12328-0.1265 0.62302 0.1093 1.4058 0.2756 1.16 0.2461 3.1968 0.9339 5.3518 1.7482 2.155 0.8144 4.2476 2.067 5.6101 2.315 6.2354 1.2389 5.842-1.3662 6.3641-2.5036 0.52208-1.1373 0.84738-1.0753 1.2465-0.9501 0.7983 0.2506 1.9154 0.7145 3.1484 1.1993 2.4661 0.9697 5.3683 2.0764 7.5859 1.6894 1.0169-0.1775 2.5777-0.5373 3.3927-1.2908 0.75238-0.6956 1.403-1.5384 1.7527-2.3468 0.31688-0.7326-0.75452-1.5046-0.73131-1.8116 0.0116-0.1535 0.0292-0.2216 0.0762-0.293 0.047-0.071 0.1481-0.1739 0.4043-0.3066 1.022-0.5296 2.2152 0.057 3.5828 0.6567 1.3675 0.5998 2.371 1.3841 3.6733 2.5201 2.6046 2.2719 5.5628 5.4378 5.5628 5.4378l0.34517-1.3666s-2.0692-2.6516-4.7637-5.0019c-1.3472-1.1752-2.8508-2.2805-4.3711-2.9473-0.76016-0.3334-1.5372-0.5588-2.2248-0.6065-0.6876-0.048-1.2891 0.031-1.8631 0.2491-1.2069-1.6131-3.1233-3.8178-5.4062-4.4882-1.0902-0.3201-2.519-0.2294-3.7695 0.1894-0.62524 0.2094-1.2059 0.5035-1.6621 0.9121s-0.7907 0.9556-0.83203 1.5957c-0.0138 0.2136-6e-3 0.4409 0.16406 0.6582 0.16984 0.2173 0.46593 0.2802 0.6543 0.2657 0.37675-0.029 0.64855-0.1843 0.99609-0.3301 0.69507-0.2918 1.516-0.5868 2.2774-0.336 0.33513 0.1104 0.46355 0.259 0.53906 0.4629 0.0755 0.2039 0.0746 0.5009-0.0312 0.8379-0.21186 0.674-0.84607 1.4429-1.5586 1.7696-0.10618 0.049-0.4443 0.069-0.92969-0.062-0.48538-0.1324-1.1022-0.3865-1.7871-0.7208-1.3698-0.6686-3.0193-1.6529-4.623-2.5976s-3.1587-1.8499-4.4082-2.3789c-0.62476-0.2645-1.1654-0.4434-1.668-0.461-0.25129-0.01-0.50513 0.023-0.73828 0.1543-0.23314 0.1309-0.41536 0.3715-0.49219 0.6309-0.43378 1.4647 0.14607 2.887-0.0517 3.3883-0.0989 0.2506-0.57561 0.6159-1.0628 0.6317-0.31041 0.1041-0.83638-0.2925-1.7351-0.3779-0.7192-0.068-1.7714-0.5436-2.8887-1.2012s-2.312-1.482-3.4356-2.1992c-1.1235-0.7173-2.157-1.3344-3.0762-1.5664-0.45958-0.1161-0.9233-0.1408-1.3398 0.068-0.41654 0.2095-0.68753 0.6456-0.79493 1.17-0.29599 1.4455-1.4918 2.2619-3.1855 2.7285l0.0391-0.07s-2.882-1.5784-5.7793-2.8907c-1.4487-0.6561-2.8959-1.2464-4.0312-1.5468-0.56766-0.1501-1.0484-0.2381-1.4863-0.1895-0.21895 0.024-0.44354 0.086-0.63672 0.252-0.19317 0.1657-0.30536 0.4394-0.30664 0.6855-3e-3 0.6299-0.19063 0.8614-0.54102 1.0469-0.3504 0.1854-0.93362 0.255-1.5898 0.2148-0.65621-0.04-1.3772-0.1767-2.0117-0.3144-0.63448-0.1378-1.1578-0.2766-1.5566-0.3164-0.0146 0-0.26628-0.074-0.57031-0.211-0.30404-0.1369-0.6909-0.3292-1.125-0.5507-0.86821-0.4428-1.6671-1.1763-2.7368-1.6417s-2.3126-1.112-3.2627-1.185c-0.47503-0.036-1.2419 1e-4 -1.6492 0.1973-0.40734 0.194-0.51809 1.0038-0.67942 1.477-0.17007 0.4988-0.44762 0.7404-0.91016 0.9063s-1.1169 0.2075-1.8711 0.1523c-1.5084-0.1104-3.3858-0.5857-5.0664-0.7695-1.5677-0.1716-3.551-1.7755-5.573-2.9644-1.011-0.5944-2.2482-1.1463-3.0125-1.4922-0.38215-0.173-0.80688-0.2552-1.1411-0.2976-0.16713-0.021-0.33823 0.199-0.51758 0.252s-0.36415 0.1778-0.47656 0.3477c-0.70644 1.0675-1.8949 1.5903-3.1543 1.664-1.2594 0.074-2.5568-0.3294-3.3516-1.0156-1.655-1.429-3.9464-1.865-5.1115-1.9357-1.1651-0.071-2.0076-0.074-2.0076-0.074zm38.543 6.4981c-0.8954-0.01-1.6019 0.1941-2.1367 0.5546-0.64213 0.4329-0.32832 1.3378-0.68937 1.8778-0.36104 0.54-1.1772 0.939-1.6326 1.2768s-1.3547 0.1217-2.364 0.087c-1.3349-0.045-3.5033-1.1111-5.7339-2.4899-0.77673-0.4802-1.5432-0.9515-2.2988-1.3945 0.18464 0.038 0.36984 0.078 0.54883 0.098 1.5716 0.1719 3.407 0.9602 5.0574 1.0809 0.82517 0.06 1.8679-0.051 2.5484-0.2954 0.6805-0.2441 1.0373-0.9802 1.2986-1.7464 0.0872-0.2557 0.19819-0.3672 0.38281-0.4551 0.18463-0.088 0.46749-0.1315 1.0143-0.09 0.5468 0.042 1.5586 0.3819 2.3092 0.7086 0.75057 0.3268 1.2295 0.5572 1.6961 0.7876zm10.426 0.066c0.19253-0.021 0.6101 0.027 1.1211 0.1621 1.022 0.2704 2.4501 0.8469 3.875 1.4922 2.0669 0.9361 3.7456 1.8149 4.7285 2.3378-1.5014 0.2127-3.1573 0.2033-4.6113 0.086-1.7483-0.1412-4.4326-1.01-7.1387-1.9219 0.31607-0.051 0.62051-0.1349 0.90039-0.2812 0.611-0.3233 1.0297-0.9966 1.0566-1.8633 4e-3 -7e-4 -5.3e-4 3e-4 0.0684-0.012zm-37.629 12.24c-5.8179 2.5644-13.76 6.2559-13.76 6.2559 0.17936 0.4046-0.11566 0.9448 1.6151 0.9062 0.35922 0.011 7.4902-1.9387 12.637-5.8042 3.0236-2.2707 8.0109-0.5546 12.833 1.3179s11.227 4.4403 15.476 4.2984c2.9271-0.098 4.4739-0.8307 6.5485-1.8714 2.0746-1.0408 3.2308-2.6489 6.1239-3.5423 0.29689-0.092 0.91469-0.1223 1.7109-0.049 0.79625 0.074 1.7793 0.2386 2.8809 0.4668 2.2032 0.4564 4.8824 1.1698 7.5684 1.9238 2.6859 0.7539 5.3796 1.5484 7.6309 2.17 2.2513 0.6215 6.316 1.3377 7.3294 1.3999 5.7401 0.3529 8.0825-2.8771 11.77-5.48 0.2792-0.1971 0.86008-0.3454 1.6562-0.3574 0.79618-0.012 1.7958 0.095 2.9102 0.2929 2.2286 0.3967 4.9207 1.1535 7.5098 1.9864 5.1782 1.6657 9.9453 3.6308 9.9453 3.6308l0.38086-0.9238s-4.7933-1.977-10.02-3.6582c-2.6131-0.8406-5.3334-1.6088-7.6406-2.0195-1.1536-0.2054-2.2028-0.3222-3.0996-0.3086-0.89676 0.014-1.6523 0.1412-2.2188 0.541-3.6561 2.5805-8.068 5.3629-13.432 5.0332-0.76401-0.047-2.5864-0.4837-4.8242-1.1016-2.2378-0.6178-4.9345-1.4117-7.6289-2.168-2.6944-0.7564-5.3868-1.4758-7.6348-1.9414-1.124-0.2329-2.1365-0.4012-2.9922-0.4804-0.85566-0.079-1.5438-0.083-2.0977 0.088-3.0096 0.9294-5.1316 2.1863-7.1621 3.205-2.0306 1.0186-3.9576 1.8067-6.707 1.8985-3.8514 0.1286-8.7604-2.0795-13.621-3.9668-3.1898-1.2386-6.3848-2.3537-8.0633-2.4261-1.6786-0.072-2.0927-0.07-2.8414-0.024-0.74871 0.046-1.7956 0.2723-2.7847 0.7082z" color="#000000" color-rendering="auto" fill="#1e3e6e" image-rendering="auto" shape-rendering="auto" solid-color="#000000" style="block-progression:tb;isolation:auto;mix-blend-mode:normal;text-decoration-color:#000000;text-decoration-line:none;text-decoration-style:solid;text-indent:0;text-transform:none;white-space:normal"/>
  </g>
  <g transform="translate(4.0625,-3.875)" fill-rule="evenodd">
   <path d="m84.69 1007.2c-0.44703 0.022-0.94845 0.2501-0.98828 0.75-0.0246 0.3093 0.44868 0.9336 0.42578 1.0176-0.10954 0.4044-0.74112 3.6613-1.002 3.6113-1.0434-0.1999-1.5894-0.2777-2.6484-0.6992-0.51256-0.2872-0.31531-1.2992-0.85937-1.3672-0.12473-0.016-0.38789 0.4258-0.42969 0.7559-0.0418 0.3302 0.0939 0.8505 0.32617 1.1172 0.88682 0.904 1.9374 1.8404 3.0938 2.1875 0.12789 0.7756 0.48953 1.2106 0.73828 1.2422 0.4591 0.02 0.62566-0.3098 1.0117-0.8359 1.9536 0.3016 3.4616-0.1563 5.25-0.5938 0.65902-0.1717 0.95426-0.817 0.91406-1.1582-0.0374-0.3175-0.17663-0.7282-0.36328-0.7462-0.15786-0.015-0.46655 0.1384-0.74219 0.7306-1.2982 0.203-2.9733 0.232-4.6894-0.3321-0.0629-0.01 0.61749-3.4164 0.64648-3.4844 0.16182-0.3815 0.95069-0.2838 0.98829-0.7266 0.0598-0.7036-0.37337-1.0773-0.94336-1.371-0.31955-0.1269-0.55227-0.089-0.72852-0.098zm0.37109 0.7168c0.23301 0 0.42189 0.1609 0.42188 0.3594 1e-5 0.1985-0.18887 0.3594-0.42188 0.3594s-0.42189-0.1609-0.42187-0.3594c-2e-5 -0.1985 0.18886-0.3594 0.42187-0.3594z" fill="#fff" stroke="#f60" stroke-width=".17717"/>
   <path d="m84.716 1007.2c-0.44703 0.022-0.94845 0.2501-0.98828 0.75-0.0246 0.3093 0.44868 0.9336 0.42578 1.0176-0.10954 0.4044-0.74112 3.6613-1.002 3.6113-1.0434-0.1999-1.5894-0.2777-2.6484-0.6992-0.51256-0.2872-0.31531-1.2992-0.85937-1.3672-0.12473-0.016-0.38789 0.4258-0.42969 0.7559-0.0418 0.3302 0.0939 0.8505 0.32617 1.1172 0.88682 0.904 1.9374 1.8404 3.0938 2.1875 0.12789 0.7756 0.48953 1.2106 0.73828 1.2422 0.4591 0.02 0.62566-0.3098 1.0117-0.8359 1.9536 0.3016 3.4616-0.1563 5.25-0.5938 0.65902-0.1717 0.95426-0.817 0.91406-1.1582-0.0374-0.3175-0.17663-0.7282-0.36328-0.7462-0.15786-0.015-0.46655 0.1384-0.74219 0.7306-1.2982 0.203-2.9733 0.232-4.6894-0.3321-0.0629-0.01 0.61749-3.4164 0.64648-3.4844 0.16182-0.3815 0.95069-0.2838 0.98829-0.7266 0.0598-0.7036-0.37336-1.0773-0.94336-1.371-0.31954-0.1269-0.55227-0.089-0.72852-0.098zm0.37109 0.7168c0.23301 0 0.4219 0.1609 0.42188 0.3594 1.6e-5 0.1985-0.18887 0.3594-0.42188 0.3594-0.233 0-0.42189-0.1609-0.42187-0.3594-1.6e-5 -0.1985 0.18886-0.3594 0.42187-0.3594z" fill="url(#bp)" stroke="#f60" stroke-width=".17717"/>
   <path d="m84.676 1007.2c-0.44703 0.022-0.94845 0.2501-0.98828 0.75-0.0246 0.3093 0.44868 0.9336 0.42578 1.0176-0.10954 0.4044-0.74112 3.6613-1.002 3.6113-1.0434-0.1999-1.5894-0.2777-2.6484-0.6992-0.51256-0.2872-0.31531-1.2992-0.85937-1.3672-0.12473-0.016-0.38789 0.4258-0.42969 0.7559-0.0418 0.3302 0.0939 0.8505 0.32617 1.1172 0.88682 0.904 1.9374 1.8404 3.0938 2.1875 0.12789 0.7756 0.48953 1.2106 0.73828 1.2422 0.4591 0.02 0.62566-0.3098 1.0117-0.8359 1.9536 0.3016 3.4616-0.1563 5.25-0.5938 0.65902-0.1717 0.95426-0.817 0.91406-1.1582-0.0374-0.3175-0.17663-0.7282-0.36328-0.7462-0.15786-0.015-0.46655 0.1384-0.74219 0.7306-1.2982 0.203-2.9733 0.232-4.6894-0.3321-0.0629-0.01 0.61749-3.4164 0.64648-3.4844 0.16182-0.3815 0.95069-0.2838 0.98829-0.7266 0.0598-0.7036-0.37336-1.0773-0.94336-1.371-0.31954-0.1269-0.55227-0.089-0.72852-0.098zm0.37109 0.7168c0.23301 0 0.4219 0.1609 0.42188 0.3594 1.6e-5 0.1985-0.18887 0.3594-0.42188 0.3594-0.233 0-0.42189-0.1609-0.42187-0.3594-1.6e-5 -0.1985 0.18886-0.3594 0.42187-0.3594z" fill="url(#ax)" opacity=".25" stroke="#f60" stroke-width=".17717"/>
   <path d="m83.938 1009.1c-0.25516 1.1506-0.39465 2.1815-0.78171 3.2959-0.98349-0.1851-1.8124-0.2-2.6444-0.8021-0.18829-0.3905-0.28497-1.5886-0.94157-1.3834-0.634 0.5341-0.77101 1.6238-0.41661 2.1312 0.40656 0.5294 0.91997 0.9962 1.4198 1.4395 0.50143 0.4448 1.3284 0.7426 1.7566 1.1399 0.1026 0.4578 0.49076 1.2653 1.0557 1.3124 0.98412 0.082 1.0166-0.8989 1.7823-0.7455 1.6319 0.327 3.1505-0.205 4.7223-0.7073 0.66445-0.2123 1.0768-1.3876 0.77613-2.0449-0.0995-0.4759-0.87999-0.4763-1.0586-0.064-0.1255 0.5313-0.65217 0.3914-1.107 0.4197-1.2506 0.078-2.1463-0.01-3.3463-0.3775 0.17445-1.1418 0.27086-1.9054 0.50012-3.0346 0.37501-0.3001 0.95238-0.097 1.07-0.9252 0.10277-0.7239-0.9334-1.7005-1.56-1.7645-0.52016-0.053-1.4873 0.087-1.5674 0.7141-0.08012 0.6272 0.15722 0.9316 0.34078 1.3963zm2.0089-0.6209c-0.0493 0.51-0.96409 0.4533-0.89033 1.0973-0.21134 1.1322-0.46343 2.2609-0.59779 3.4047 0.25482 0.3699 0.86656 0.3629 1.2905 0.4594 1.2496 0.2844 2.5612 0.2358 3.8251 0.028 0.10819-0.2383 0.50529-1.1415 0.64547-0.4762 0.18885 0.6185-0.40293 1.1917-0.99348 1.2377-1.6167 0.4162-3.3127 0.661-4.9723 0.3572-0.27527 0.3265-0.49515 0.8002-0.94288 0.8972-0.4045-0.2238-0.40013-0.7905-0.49993-1.1987-0.3886-0.241-0.99067-0.3614-1.386-0.6889-0.6548-0.4513-1.2791-0.9709-1.7853-1.5859-0.25778-0.2761-0.16261-1.0918 0.15896-1.0952 0.0968 0.4946 0.2163 1.0741 0.78672 1.2268 0.85761 0.4344 1.8258 0.5814 2.7644 0.7174 0.41456-0.2763 0.3861-0.8944 0.54021-1.3346 0.19008-0.8565 0.34932-1.7204 0.51507-2.5811-0.097-0.4002-0.38677-0.5735-0.3294-1.0802 0.0319-0.2816 0.4577-0.3867 0.89467-0.4374 0.43698-0.051 1.0356 0.4385 0.97625 1.0525zm-0.9741-0.7839c-0.34714-0.025-0.51784 0.2182-0.53712 0.4929-0.02545 0.3628 0.21314 0.78 0.65822 0.7037 0.3797-0.015 0.53071-0.3376 0.49017-0.6439-0.03884-0.2935-0.25348-0.5723-0.61127-0.5527zm0.0781 0.3086c0.18629 0.1025 0.2418 0.2168 0.22562 0.3086-0.01866 0.1059-0.13269 0.1819-0.25141 0.1753-0.11873-0.01-0.24216-0.096-0.27963-0.3201 0.0434-0.081 0.30542-0.1638 0.30542-0.1638z" color="#000000" color-rendering="auto" fill="#5e5e5e" image-rendering="auto" shape-rendering="auto" solid-color="#000000" style="block-progression:tb;isolation:auto;mix-blend-mode:normal;text-decoration-color:#000000;text-decoration-line:none;text-decoration-style:solid;text-indent:0;text-transform:none;white-space:normal"/>
  </g>
 </g>
</svg>
